<?xml version="1.0" encoding="utf-8"?>
<!-- Generator: Adobe Illustrator 23.0.3, SVG Export Plug-In . SVG Version: 6.00 Build 0)  -->
<svg version="1.1" id="Layer_1" xmlns="http://www.w3.org/2000/svg" xmlns:xlink="http://www.w3.org/1999/xlink" x="0px" y="0px"
	 viewBox="0 0 1580 520" style="enable-background:new 0 0 1580 520;" xml:space="preserve">
<style type="text/css">
	.st0{fill:#1CA679;}
	.st1{fill:none;stroke:#FFFFFF;stroke-width:3;stroke-miterlimit:10;}
	.st2{fill:#FFFFFF;}
	.st3{fill:#E7AD24;}
	.st4{opacity:0.7;fill:#FFFFFF;}
	.st5{opacity:0.8;fill:#FFFFFF;stroke:#FFFFFF;stroke-width:3;stroke-miterlimit:10;}
</style>
<rect class="st0" width="1580" height="520"/>
<polygon class="st1" points="183.2,397 220.9,396.6 240,430.5 221.4,464.7 183.7,465.1 164.6,431.2 "/>
<polygon class="st1" points="125.3,362.8 163,362.4 182.1,396.3 163.5,430.5 125.8,430.9 106.7,397 "/>
<polygon class="st1" points="69.3,396 107.1,395.7 126.2,429.6 107.6,463.8 69.9,464.1 50.7,430.2 "/>
<polygon class="st1" points="146.9,170.9 147.4,200.1 122.4,215.1 96.9,200.9 96.4,171.8 121.4,156.8 "/>
<polygon class="st1" points="171.9,213.9 172.4,243.1 147.4,258.1 121.9,243.9 121.4,214.8 146.4,199.8 "/>
<polygon class="st1" points="195.9,170.9 196.4,200.1 171.4,215.1 145.9,200.9 145.4,171.8 170.4,156.8 "/>
<polygon class="st1" points="762.9,126.4 763.8,79.1 720.3,54.7 676,77.7 675.1,125.1 718.6,149.4 "/>
<polygon class="st1" points="853.3,126.4 854.2,79.1 810.7,54.7 766.4,77.7 765.5,125.1 809,149.4 "/>
<polygon class="st1" points="961.2,81 962,128.3 918.5,152.7 874.2,129.7 873.4,82.3 916.8,58 "/>
<polygon class="st1" points="1448.4,335.5 1403.6,357.7 1359.2,332.6 1359.6,285.3 1404.4,263.1 1448.8,288.2 "/>
<polygon class="st1" points="274.2,117.3 273.7,71.8 319.3,48.7 365.3,71.2 365.8,116.8 320.3,139.8 "/>
<polygon class="st1" points="1397.2,255.9 1355.2,276.8 1312.4,254.8 1311.7,212.1 1353.7,191.2 1396.5,213.1 "/>
<polygon class="st1" points="222.8,193.5 222.3,147.9 267.8,124.9 313.9,147.4 314.4,192.9 268.8,216 "/>
<polygon class="st2" points="156.3,212.1 156.3,224.8 145.1,231 134,224.4 134,211.7 145.1,205.5 "/>
<polygon class="st3" points="136.9,392 153.4,392.1 161.2,407.2 152.6,422.2 136.1,422 128.3,407 "/>
<polygon class="st2" points="819.2,105 819.2,84.3 799.9,74.3 780.5,85 780.5,105.7 799.9,115.7 "/>
<polygon class="st4" points="973.4,75.8 973.5,109.7 942,126.5 910.4,109.5 910.3,75.6 941.8,58.8 "/>
<polygon class="st4" points="123.9,166.7 123.9,187.6 105.8,198 87.7,187.5 87.6,166.6 105.7,156.2 "/>
<polygon class="st4" points="235.5,186.1 235.7,153.5 268.7,137.5 301.5,154.2 301.3,186.8 268.3,202.7 "/>
<polygon class="st4" points="1436.2,327.3 1404.6,344 1372.4,326.7 1371.6,292.7 1403.1,275.9 1435.4,293.2 "/>
<polygon class="st4" points="58.9,381.1 85.9,381.2 99.1,405.7 85.3,430.1 58.3,430 45.1,405.4 "/>
<polygon class="st5" points="1154.7,182.4 1153.7,225.3 1112.6,247.5 1072.4,226.8 1073.3,183.8 1114.4,161.6 "/>
<polygon class="st1" points="1224.5,174.3 1223.7,133.4 1262.2,112.4 1301.3,132.2 1302.1,173.1 1263.7,194.1 "/>
<polygon class="st1" points="1186,114 1185.3,73.1 1223.7,52.1 1262.9,72 1263.7,112.8 1225.2,133.8 "/>
<polygon class="st1" points="1106.1,114 1105.3,73.1 1143.8,52.1 1183,72 1183.7,112.8 1145.3,133.8 "/>
<polygon class="st1" points="1016.9,114 1016.2,73.1 1054.6,52.1 1093.8,72 1094.6,112.8 1056.1,133.8 "/>
<polygon class="st3" points="1136.2,95.5 1136.2,77.7 1153.4,69 1170.5,78.2 1170.5,96.1 1153.4,104.7 "/>
<polygon class="st4" points="1006.2,118.5 1006.1,89.2 1033.9,74.7 1061.8,89.4 1061.9,118.6 1034.1,133.2 "/>
<polygon class="st4" points="1259,159.4 1259.1,132.7 1283.8,118.6 1308.6,131.1 1308.6,157.8 1283.8,171.9 "/>
<polygon class="st1" points="1364.8,136.7 1364,182.5 1407.4,206.1 1451.8,183.8 1452.6,138.1 1409.1,114.5 "/>
<polygon class="st1" points="1408.3,69.2 1407.4,115 1450.9,138.5 1495.2,116.3 1496.1,70.5 1452.6,47 "/>
<polygon class="st2" points="1402.4,151.1 1402.4,171.1 1421.7,180.8 1441.1,170.5 1441.1,150.5 1421.7,140.8 "/>
<polygon class="st4" points="1389.1,56.3 1389,89.1 1420.5,105.4 1452.1,88.9 1452.2,56.2 1420.7,39.9 "/>
<polygon class="st1" points="99.7,148.4 100.3,117.2 74,101.1 47.3,116.3 46.8,147.5 73,163.6 "/>
<polygon class="st1" points="126,102.3 126.5,71 100.3,54.9 73.5,70.1 73,101.4 99.2,117.5 "/>
<polygon class="st1" points="180.6,102.3 181.1,71 154.8,54.9 128.1,70.1 127.6,101.4 153.8,117.5 "/>
<polygon class="st1" points="241.4,102.3 242,71 215.7,54.9 189,70.1 188.4,101.4 214.7,117.5 "/>
<polygon class="st3" points="160,88.1 160,74.5 148.3,67.9 136.6,74.9 136.6,88.6 148.3,95.2 "/>
<polygon class="st4" points="248.8,105.7 248.9,83.3 229.9,72.2 210.8,83.4 210.7,105.8 229.7,117 "/>
<polygon class="st4" points="76.2,137.1 76.1,116.7 59.2,105.8 42.3,115.4 42.4,135.8 59.3,146.7 "/>
<polygon class="st1" points="1267.9,436.7 1268.7,486.8 1224.5,512.6 1179.5,488.3 1178.6,438.2 1222.8,412.4 "/>
<polygon class="st1" points="1374.5,441.5 1375.2,482.3 1340.6,503.3 1305.3,483.5 1304.6,442.7 1339.2,421.7 "/>
<polygon class="st1" points="1446.5,441.5 1447.2,482.3 1412.6,503.3 1377.3,483.5 1376.6,442.7 1411.2,421.7 "/>
<polygon class="st1" points="1526.8,441.5 1527.5,482.3 1492.9,503.3 1457.6,483.5 1456.9,442.7 1491.5,421.7 "/>
<polygon class="st3" points="1419.4,460 1419.4,477.8 1403.9,486.4 1388.5,477.2 1388.5,459.4 1403.9,450.8 "/>
<polygon class="st4" points="1536.5,437.1 1536.6,466.3 1511.6,480.8 1486.4,466.1 1486.3,436.9 1511.4,422.4 "/>
<polygon class="st4" points="1228.2,455 1228.1,487.6 1199.6,505 1171.2,489.6 1171.2,456.9 1199.7,439.6 "/>
</svg>
