<?xml version="1.0" encoding="utf-8"?>
<!-- Generator: Adobe Illustrator 23.0.3, SVG Export Plug-In . SVG Version: 6.00 Build 0)  -->
<svg version="1.1" id="Layer_1" xmlns="http://www.w3.org/2000/svg" xmlns:xlink="http://www.w3.org/1999/xlink" x="0px" y="0px"
	 viewBox="0 0 1580 660" style="enable-background:new 0 0 1580 660;" xml:space="preserve">
<style type="text/css">
	.st0{fill:#E7B621;}
	.st1{opacity:0.2;}
	.st2{fill:#FFFFFF;stroke:#FFFFFF;stroke-width:3;stroke-miterlimit:10;}
	.st3{fill:#E7B621;stroke:#FFFFFF;stroke-width:3;stroke-miterlimit:10;}
	.st4{fill:#FFFFFF;}
	.st5{fill:#E7B621;stroke:#E7B621;stroke-width:3;stroke-miterlimit:10;}
	.st6{fill:#FFFFFF;stroke:#E7B621;stroke-width:4;stroke-miterlimit:10;}
	.st7{fill:#FFFFFF;stroke:#E7B621;stroke-miterlimit:10;}
	.st8{opacity:0.2;fill:#FFFFFF;stroke:#FFFFFF;stroke-width:3;stroke-miterlimit:10;enable-background:new    ;}
	.st9{fill:#9ABFE5;stroke:#9ABFE5;stroke-width:6;stroke-miterlimit:10;}
	.st10{fill:#AADAF5;stroke:#010101;stroke-width:0.5;stroke-miterlimit:10;}
	.st11{fill:#E9C41D;stroke:#010101;stroke-width:0.5;stroke-miterlimit:10;}
	.st12{fill:#B4B4B4;stroke:#010101;stroke-width:0.5;stroke-miterlimit:10;}
	.st13{fill:#0695C3;stroke:#010101;stroke-width:0.5;stroke-miterlimit:10;}
	.st14{fill:#55C4F0;}
	.st15{fill:#BDA12F;}
	.st16{fill:#818181;}
	.st17{fill:#067DA4;}
	.st18{fill:#C66C2E;stroke:#C66C2E;stroke-miterlimit:10;}
	.st19{fill:#989898;}
	.st20{fill:none;stroke:#989898;stroke-miterlimit:10;}
	.st21{fill:#E9C41D;stroke:#E9C41D;stroke-width:6;stroke-miterlimit:10;}
	.st22{fill:none;stroke:#FFFFFF;stroke-width:2;stroke-miterlimit:10;}
	.st23{fill:#FFFFFF;stroke:#FFFFFF;stroke-width:2;stroke-miterlimit:10;}
	.st24{fill:#E7AD24;stroke:#E7AD24;stroke-miterlimit:10;}
	.st25{fill:#0378AE;stroke:#0378AE;stroke-miterlimit:10;}
	.st26{fill:#355F9E;stroke:#0378AE;stroke-miterlimit:10;}
	.st27{fill:#E39425;stroke:#E7AD24;stroke-miterlimit:10;}
	.st28{fill:#F5843C;stroke:#F5843C;stroke-width:6;stroke-miterlimit:10;}
	.st29{fill:#E9C41D;stroke:#E9C41D;stroke-miterlimit:10;}
	.st30{fill:#4E4E4E;}
	.st31{fill:#0695C3;stroke:#0695C3;stroke-miterlimit:10;}
	.st32{fill:#FFFFFF;stroke:#B4B4B4;stroke-miterlimit:10;}
	.st33{fill:#B4B4B4;stroke:#B4B4B4;stroke-miterlimit:10;}
	.st34{fill:#E7AD24;}
	.st35{fill:#0378AE;}
	.st36{fill:#AADAF5;stroke:#AADAF5;stroke-width:6;stroke-miterlimit:10;}
	.st37{fill:#231F20;}
	.st38{fill:#CA2128;}
	.st39{fill:#E34B25;}
	.st40{fill:#FEC76F;}
	.st41{fill:#00A99D;stroke:#00A99D;stroke-width:6;stroke-miterlimit:10;}
	.st42{fill:#FFFFFF;stroke:#010101;stroke-miterlimit:10;}
	.st43{fill:#676767;stroke:#676767;stroke-miterlimit:10;}
	.st44{fill:#FBB03B;stroke:#FBB03B;stroke-miterlimit:10;}
	.st45{fill:#24B574;stroke:#24B574;stroke-miterlimit:10;}
	.st46{fill:#00A99D;stroke:#00A99D;stroke-miterlimit:10;}
	.st47{fill:#1072BA;stroke:#1072BA;stroke-miterlimit:10;}
	.st48{fill:#EC2227;stroke:#EC2227;stroke-miterlimit:10;}
	.st49{fill:#F47627;stroke:#F47627;stroke-miterlimit:10;}
	.st50{fill:#F15B27;stroke:#F15B27;stroke-miterlimit:10;}
	.st51{fill:#F15B27;}
	.st52{fill:#B4B4B4;stroke:#989898;stroke-miterlimit:10;}
</style>
<rect class="st0" width="1580" height="660"/>
<g>
	<g class="st1">
		<path class="st2" d="M244.4,216h-26.9c-16,0-29-13-29-29v-22.8c0-16,13-29,29-29h26.9c16,0,29,13,29,29V187
			C273.4,203,260.4,216,244.4,216z"/>
		<g>
			<path class="st3" d="M263.2,182.1c0,0-1.7,2.1-0.7,3.9c0,0,2.6,4.6-2.2,7c0,0-1.4,1.4-0.6,2.6c0,0,1.8,3-2.4,4.5
				c0,0-12.2,6.2-31.3,1c-4.3-1.2-7.6-2.9-10.1-4.9l-0.3-28.1c0.9-0.5,1.9-1,2.2-1.4c0,0,2.5-6.6,8.9-8.6c0,0,5.6-1,6.8-11.2
				c0,0,2.4-8.5,7.5-3.6c0,0,3.9,2.3,1.7,17.3c0,0-0.6,3.2-2.3,4.5c0,0,13.7-3.4,23.3,0.4c0,0,3.8,3,0.7,7c0,0-0.2,1.3,0.6,1.5
				C264.7,174.1,270.6,178.6,263.2,182.1z"/>
			
				<rect x="201.9" y="166" transform="matrix(0.9999 -1.226008e-02 1.226008e-02 0.9999 -2.2222 2.5736)" class="st3" width="13.7" height="33"/>
		</g>
	</g>
	<g class="st1">
		<ellipse class="st2" cx="1469.8" cy="480.7" rx="70.6" ry="59"/>
		<g>
			<g>
				<path class="st0" d="M1434.3,512.6c-9.7,0-17.5-7-17.5-15.7v-32.1c0-2.1,0.5-4.2,1.4-6.2c2.8-5.7,9.1-9.5,16.1-9.5h72
					c6.4,0,12.4,3.2,15.4,8.2c1.4,2.3,2.1,4.8,2.1,7.4v32.1c0,8.6-7.9,15.7-17.5,15.7h-72V512.6z"/>
				<path class="st4" d="M1506.4,450.7c5.9,0,11.3,2.9,14.2,7.5c1.2,2.1,1.9,4.3,1.9,6.7V497c0,7.8-7.2,14.2-16,14.2h-72
					c-8.8,0-16-6.3-16-14.2v-32.1c0-1.9,0.4-3.8,1.3-5.5c2.5-5.2,8.3-8.6,14.8-8.6L1506.4,450.7 M1506.4,447.7h-72
					c-7.8,0-14.5,4.2-17.5,10.3c-1,2.1-1.6,4.4-1.6,6.8v32.1c0,9.5,8.5,17.2,19,17.2h72c10.5,0,19-7.7,19-17.2v-32.1
					c0-3-0.8-5.8-2.3-8.2C1519.9,451.3,1513.6,447.7,1506.4,447.7L1506.4,447.7z"/>
			</g>
			<g>
				<path class="st0" d="M1470.8,493.4c-3.5,0-6.7-1.2-9.2-3.4l-0.1-0.1l-42.7-32.3c3-5.1,9-8.4,15.5-8.4h72c6,0,11.5,2.7,14.7,7.1
					l-41.1,33.6C1477.4,492.2,1474.3,493.4,1470.8,493.4z"/>
				<path class="st4" d="M1506.4,450.7c5,0,9.6,2,12.6,5.4l-40,32.6h-0.1h-0.1c-2.2,1.9-5.1,3-8.1,3c-3.1,0-6-1.1-8.1-3l-0.1-0.1
					l-0.1-0.1l-41.6-31.5c2.9-4,8-6.5,13.5-6.5h72.1 M1506.4,447.7h-72c-7.8,0-14.5,4.2-17.5,10.3l43.7,33.1
					c2.8,2.5,6.5,3.8,10.2,3.8s7.4-1.3,10.2-3.8l42.2-34.4C1519.9,451.3,1513.6,447.7,1506.4,447.7L1506.4,447.7z"/>
			</g>
		</g>
	</g>
	<g class="st1">
		<path class="st2" d="M1486.8,160.7h-34.1c-17.2,0-31.2-14-31.2-31.2v-22.7c0-17.2,14-31.2,31.2-31.2h34.1
			c17.2,0,31.2,14,31.2,31.2v22.7C1518,146.7,1504,160.7,1486.8,160.7z"/>
		<g>
			<path class="st5" d="M1502,105.9c0,11.4-10.2,20.6-22.7,20.6c-2.5,0-4.9-0.4-7.2-1.1c-0.4,1.2-1,2.4-1.9,3.4l-17.8,19.9
				c-4.3-2.4-8.2-5.3-11.6-8.6c-1.2-1.2-2.3-2.4-3.4-3.6l18-20.2c0.9-1,1.9-1.7,3-2.3c-1.2-2.5-1.9-5.3-1.9-8.2
				c0-11.4,10.2-20.6,22.7-20.6c0.9,0,1.9,0.1,2.8,0.2l-13.6,14.9c-1.3,1.4-1.2,3.6,0.3,4.8l11.7,10.1c1.4,1.3,3.7,1.1,5-0.3
				l15.1-16.5C1501.5,100.8,1502,103.3,1502,105.9z"/>
		</g>
	</g>
	<g class="st1">
		<path class="st2" d="M878.2,558.9h-23.6c-12.6,0-22.8-10.2-22.8-22.8v-16.6c0-12.6,10.2-22.8,22.8-22.8h23.6
			c12.6,0,22.8,10.2,22.8,22.8v16.6C901,548.7,890.8,558.9,878.2,558.9z"/>
		<g>
			<path class="st6" d="M879.2,524c0,3-1,5.8-2.6,8.1c-1.5,2.1-3.6,3.9-6,5.2c-2.4,1.2-5.2,1.9-8.2,1.9c-9.3,0-16.9-6.8-16.9-15.2
				s7.5-15.2,16.9-15.2C871.6,508.8,879.2,515.6,879.2,524z"/>
			<path class="st6" d="M886.3,546.2c-1.6,1.5-4.3,1.5-5.9,0l-9.5-8.6c-0.1-0.1-0.2-0.2-0.3-0.3c2.5-1.2,4.5-3,6-5.2l0.1,0.1
				l9.5,8.6C887.9,542.3,887.9,544.7,886.3,546.2z"/>
			<ellipse class="st7" cx="862.5" cy="523.8" rx="12.5" ry="11.6"/>
		</g>
	</g>
	<ellipse class="st2" cx="1203" cy="89" rx="11" ry="9.5"/>
	<ellipse class="st2" cx="1431.3" cy="249.1" rx="26.3" ry="24.6"/>
	<ellipse class="st2" cx="108" cy="318" rx="22.7" ry="21.1"/>
	<ellipse class="st8" cx="90.5" cy="316.6" rx="44.6" ry="41.6"/>
	<ellipse class="st8" cx="1213.3" cy="99.3" rx="44.6" ry="41.6"/>
	<ellipse class="st8" cx="1432" cy="249.8" rx="44.6" ry="41.6"/>
	<ellipse class="st8" cx="115.4" cy="502.5" rx="67.3" ry="62.8"/>
	<ellipse class="st2" cx="1399.2" cy="66.7" rx="8" ry="7.4"/>
	<ellipse class="st8" cx="779" cy="175.6" rx="32.6" ry="32.4"/>
	<g>
		<ellipse class="st9" cx="1312.6" cy="339.1" rx="56.5" ry="57"/>
		<g>
			<path class="st10" d="M1320.3,327.7h-48.8c-3.5,0-6.4-2.9-6.4-6.4l0,0c0-3.5,2.9-6.4,6.4-6.4h48.8c3.5,0,6.4,2.9,6.4,6.4l0,0
				C1326.7,324.9,1323.8,327.7,1320.3,327.7z"/>
			<path class="st11" d="M1323.7,340.6h-48.8c-3.5,0-6.4-2.9-6.4-6.4l0,0c0-3.5,2.9-6.4,6.4-6.4h48.8c3.5,0,6.4,2.9,6.4,6.4l0,0
				C1330.1,337.7,1327.2,340.6,1323.7,340.6z"/>
			<path class="st12" d="M1318.2,353.4h-48.8c-3.5,0-6.4-2.9-6.4-6.4l0,0c0-3.5,2.9-6.4,6.4-6.4h48.8c3.5,0,6.4,2.9,6.4,6.4l0,0
				C1324.6,350.5,1321.8,353.4,1318.2,353.4z"/>
			<path class="st13" d="M1318.2,366.2h-48.8c-3.5,0-6.4-2.9-6.4-6.4l0,0c0-3.5,2.9-6.4,6.4-6.4h48.8c3.5,0,6.4,2.9,6.4,6.4l0,0
				C1324.6,363.4,1321.8,366.2,1318.2,366.2z"/>
			<path class="st14" d="M1324.3,324.2h-56.9c-0.9,0-1.7-0.8-1.7-1.7v-2.3c0-0.9,0.8-1.7,1.7-1.7h56.9c0.9,0,1.7,0.8,1.7,1.7v2.3
				C1326,323.4,1325.2,324.2,1324.3,324.2z"/>
			<path class="st15" d="M1327.7,337h-56.9c-0.9,0-1.7-0.8-1.7-1.7V333c0-0.9,0.8-1.7,1.7-1.7h56.9c0.9,0,1.7,0.8,1.7,1.7v2.3
				C1329.4,336.3,1328.7,337,1327.7,337z"/>
			<path class="st16" d="M1322.3,349.8h-56.9c-0.9,0-1.7-0.8-1.7-1.7v-2.3c0-0.9,0.8-1.7,1.7-1.7h56.9c0.9,0,1.7,0.8,1.7,1.7v2.3
				C1323.9,349.1,1323.2,349.8,1322.3,349.8z"/>
			<path class="st17" d="M1322.3,362.7h-56.9c-0.9,0-1.7-0.8-1.7-1.7v-2.3c0-0.9,0.8-1.7,1.7-1.7h56.9c0.9,0,1.7,0.8,1.7,1.7v2.3
				C1323.9,361.9,1323.2,362.7,1322.3,362.7z"/>
		</g>
		<g>
			<g>
				<g>
					<path class="st18" d="M1357.6,365.1L1357.6,365.1c-1.6,1.4-3.9,1.2-5.3-0.4l-38.4-47c-1.4-1.6-1.9-3.9-0.4-5.3l0,0
						c1.6-1.4,3.7-0.5,5,1.1l39.4,46C1359.3,361.2,1359.2,363.7,1357.6,365.1z"/>
					<g>
						<g>
							<g>
								<path class="st19" d="M1307.2,355.2c-4.1-29.2,8.9-50.6,49.3-46.3C1329.5,308.9,1307.6,329.5,1307.2,355.2L1307.2,355.2z"/>
							</g>
							<g>
								<path class="st20" d="M1307.2,355.9c0-0.2,0-0.5,0-0.7c0.4-25.7,22.3-46.3,49.3-46.3"/>
								<path class="st20" d="M1307.2,355.2c-4.1-29.2,8.9-50.6,49.3-46.3"/>
							</g>
						</g>
					</g>
				</g>
			</g>
		</g>
	</g>
	<g>
		<ellipse class="st21" cx="427.3" cy="118.2" rx="95" ry="92"/>
		<g>
			<g>
				<g>
					<g>
						<line class="st22" x1="355.9" y1="82.3" x2="355.9" y2="167.9"/>
						<line class="st22" x1="502.3" y1="167.9" x2="355.5" y2="167.5"/>
					</g>
					<polygon class="st23" points="501.4,169.7 501.5,166.2 504.4,167.9 					"/>
					<polygon class="st23" points="354.3,83.2 356.1,80.1 357.8,83.2 					"/>
					<rect x="376.8" y="122.4" class="st24" width="13.1" height="39.3"/>
					<rect x="408.2" y="103.7" class="st25" width="14.8" height="58"/>
					<rect x="436.1" y="117.9" class="st24" width="14.8" height="43.7"/>
					<rect x="460.5" y="84.9" class="st25" width="15.7" height="76.7"/>
					<line class="st22" x1="382.5" y1="114.8" x2="415.6" y2="84.5"/>
					<line class="st22" x1="440" y1="94.3" x2="414.7" y2="84.5"/>
					<line class="st22" x1="462.7" y1="67.5" x2="439.1" y2="94.3"/>
					<polygon class="st23" points="459.5,68 462.8,66.7 462.2,70.2 					"/>
					<rect x="464.7" y="84.9" class="st26" width="10.4" height="76.7"/>
					<rect x="440.7" y="117.9" class="st27" width="7.9" height="43.7"/>
					<rect x="380.8" y="122.5" class="st27" width="7.9" height="39.1"/>
					<rect x="412.9" y="104.1" class="st26" width="8.1" height="57.5"/>
				</g>
			</g>
		</g>
	</g>
	<g>
		<ellipse class="st28" cx="146.9" cy="475.9" rx="82.5" ry="80"/>
		<g>
			<g>
				<g>
					<rect x="93.2" y="481.7" class="st29" width="66.5" height="50.7"/>
					<rect x="96.6" y="486.1" class="st30" width="17.7" height="2.4"/>
					<rect x="96.6" y="495.6" class="st30" width="53.9" height="1.8"/>
					<rect x="96.6" y="500.4" class="st30" width="53.9" height="1.8"/>
					<rect x="96.6" y="505.1" class="st30" width="24.2" height="1.8"/>
					<rect x="96.6" y="510.2" class="st30" width="53.9" height="1.8"/>
					<rect x="96.6" y="514.7" class="st30" width="53.9" height="1.8"/>
					<rect x="96.6" y="519.1" class="st30" width="53.9" height="1.8"/>
				</g>
			</g>
		</g>
		<g>
			<g>
				<g>
					<rect x="150.6" y="421.9" class="st31" width="47.7" height="59.9"/>
					<rect x="154.3" y="425.3" class="st30" width="17.7" height="2.4"/>
					<rect x="154.3" y="430.4" class="st30" width="1.9" height="1.8"/>
					<rect x="154.3" y="434.6" class="st30" width="1.9" height="1.8"/>
					<rect x="154.3" y="438.4" class="st30" width="1.9" height="1.8"/>
					<rect x="154.3" y="442.3" class="st30" width="1.9" height="1.8"/>
					<rect x="159.8" y="430.4" class="st30" width="9.7" height="1.8"/>
					<rect x="159.8" y="434.6" class="st30" width="16.8" height="1.8"/>
					<rect x="159.8" y="438.4" class="st30" width="12.6" height="1.8"/>
					<rect x="159.8" y="442.3" class="st30" width="11.6" height="1.8"/>
					<rect x="154.3" y="450.7" class="st30" width="17.7" height="2.4"/>
					<rect x="155" y="458.1" class="st30" width="1.9" height="1.8"/>
					<rect x="155" y="462.3" class="st30" width="1.9" height="1.8"/>
					<rect x="155" y="466.2" class="st30" width="1.9" height="1.8"/>
					<rect x="155" y="470" class="st30" width="1.9" height="1.8"/>
					<rect x="160.5" y="458.1" class="st30" width="22.9" height="1.8"/>
					<rect x="160.5" y="462.3" class="st30" width="16.8" height="1.8"/>
					<rect x="160.5" y="466.2" class="st30" width="19.7" height="1.8"/>
					<rect x="160.5" y="470" class="st30" width="11.6" height="1.8"/>
				</g>
			</g>
		</g>
		<g>
			<g>
				<g>
					<g>
						<polygon class="st32" points="154.2,431.2 154.2,462.4 92.9,462.4 92.9,424 143,424 						"/>
						<polygon class="st33" points="153.9,431.3 143.2,430.8 142.8,424.1 						"/>
					</g>
					<rect x="96" y="428.3" class="st16" width="15.2" height="1.8"/>
					<rect x="96.3" y="435.5" class="st16" width="42.9" height="1.8"/>
					<rect x="96.9" y="439" class="st16" width="13.6" height="2.1"/>
					<rect x="112.7" y="439" class="st16" width="13.6" height="2.1"/>
					<rect x="96.9" y="443.8" class="st16" width="13.6" height="2.1"/>
					<rect x="96.9" y="448.6" class="st16" width="13.6" height="2.1"/>
					<rect x="96.9" y="453.3" class="st16" width="13.6" height="2.1"/>
					<rect x="112.7" y="443.8" class="st16" width="13.6" height="2.1"/>
					<rect x="112.7" y="448.6" class="st16" width="13.6" height="2.1"/>
					<rect x="112.7" y="453.3" class="st16" width="13.6" height="2.1"/>
				</g>
			</g>
		</g>
		<g>
			<g>
				<g>
					<g>
						<polygon class="st32" points="146.9,495.2 146.9,526.4 208.2,526.4 208.2,488 158.1,488 						"/>
						<polygon class="st33" points="147.2,495.3 157.9,494.8 158.3,488.1 						"/>
					</g>
					<rect x="190" y="492.3" class="st16" width="15.2" height="1.8"/>
					<rect x="161.9" y="499.5" class="st16" width="42.9" height="1.8"/>
					<rect x="190.6" y="503" class="st16" width="13.6" height="2.1"/>
					<rect x="174.8" y="503" class="st16" width="13.6" height="2.1"/>
					<rect x="190.6" y="507.8" class="st16" width="13.6" height="2.1"/>
					<rect x="190.6" y="512.6" class="st16" width="13.6" height="2.1"/>
					<rect x="190.6" y="517.3" class="st16" width="13.6" height="2.1"/>
					<rect x="174.8" y="507.8" class="st16" width="13.6" height="2.1"/>
					<rect x="174.8" y="512.6" class="st16" width="13.6" height="2.1"/>
					<rect x="174.8" y="517.3" class="st16" width="13.6" height="2.1"/>
				</g>
			</g>
		</g>
	</g>
	<g>
		<ellipse class="st28" cx="978.4" cy="117" rx="85.3" ry="78.4"/>
		<g id="XMLID_1_">
			<g>
				<g>
					<path class="st34" d="M1026.9,116.8c0,20.4,1.2,40.7,3.7,61.1c-17.6-2.8-35.1-4.3-52.7-4.3v-0.1c0-18.9,0-37.8,0-56.7
						C994.2,116.9,1010.5,116.9,1026.9,116.8C1026.8,116.8,1026.9,116.8,1026.9,116.8z"/>
					<path class="st35" d="M1030.6,56c-2.4,20.3-3.7,40.6-3.7,60.8h-0.1c-16.3,0-32.6,0-48.9,0c0-18.9,0-37.7,0-56.6
						C995.4,60.3,1013,58.9,1030.6,56z"/>
					<path class="st35" d="M977.9,173.5v0.1c-17.5,0-35,1.4-52.5,4.3c2.5-20.4,3.7-40.7,3.7-61.1c16.3,0,32.6,0,48.8,0
						C977.9,135.8,977.9,154.6,977.9,173.5z"/>
					<path class="st34" d="M977.9,60.3c0,18.9,0,37.7,0,56.6c-16.3,0-32.5,0-48.8,0c0-20.3-1.2-40.6-3.7-60.8
						C942.9,58.9,960.4,60.3,977.9,60.3z"/>
				</g>
			</g>
		</g>
		<g>
			<g>
				<path class="st4" d="M964.9,134.2l-1.6-1.6l-4,2.8c-1.2-0.8-2.5-1.3-3.8-1.5l-0.5-4.8l-2.2-0.2l-0.8,4.9
					c-1.7,0.2-3.4,0.9-4.8,1.9l-4-2.9l-1.5,1.5l3.1,3.8c-1.2,1.6-1.8,3.5-1.9,5.4l-4.7,0.7l0.2,2.1l4.9,0.6c0.3,1.1,0.8,2.1,1.5,3.1
					l-3.2,3.9l1.6,1.6l4.1-2.9c1.1,0.8,2.2,1.4,3.5,1.7l0.6,5.1l2.2,0.2l0.8-4.9c2-0.1,4-0.7,5.7-2l4.1,2.9l1.4-1.5l-3.1-3.7
					c1.2-1.6,1.8-3.5,1.9-5.4l4.9-0.6l-0.3-2.3l-5-0.5c-0.4-1.3-1-2.6-2-3.8L964.9,134.2z M958.3,148.6c-2.4,2.4-6.4,2.3-9.1-0.2
					s-2.9-6.5-0.5-8.9s6.4-2.3,9.1,0.2C960.5,142.3,960.7,146.2,958.3,148.6z"/>
			</g>
		</g>
		<g>
			<g>
				<path class="st4" d="M1036,114.6l4-0.4V111l-3.9-0.3c0-0.8-0.1-1.6-0.2-2.4l4.1-1l-0.5-3.2l-4.4,0.2c-0.2-0.8-0.5-1.6-0.7-2.4
					l4-1.7l-1.1-3l-4.4,1c-0.4-0.8-0.8-1.6-1.3-2.4l3.9-2.7l-1.7-2.7l-4.4,2c-0.5-0.7-1-1.3-1.6-2l3.2-3.2l-2.2-2.4l-4,2.6
					c-0.6-0.5-1.2-1-1.8-1.5l2.4-3.6l-2.7-1.9l-3.1,3.2c-0.8-0.5-1.5-0.9-2.3-1.3l1.5-3.9l-3-1.4l-2.4,3.6c-1-0.4-2-0.7-3.1-1
					l0.4-4.4l-3.3-0.6l-1.3,4.2c-1-0.1-1.9-0.2-2.9-0.3l-0.4-4.2h-3.4l-0.4,4.2c-1,0.1-2,0.2-2.9,0.3l-1.3-4.2l-3.3,0.6l0.4,4.4
					c-1,0.3-2,0.6-2.9,0.9l-2.5-3.9l-3,1.4l1.6,4.2c-0.8,0.4-1.6,0.9-2.4,1.3l-3.4-3.5l-2.7,1.9l2.6,4c-0.6,0.4-1.1,0.9-1.6,1.4
					l-4.3-2.9l-2.2,2.4l3.5,3.5c-0.6,0.6-1.1,1.3-1.6,2l-4.4-2l-1.7,2.7l3.8,2.7c-0.5,0.8-0.9,1.6-1.3,2.4l-4.4-1l-1.1,3l4,1.7
					c-0.3,0.8-0.5,1.6-0.7,2.4l-4.3-0.2l-0.5,3.2l4.1,1c-0.1,0.8-0.2,1.6-0.2,2.4l-3.9,0.3v3.2l3.9,0.4c0.1,1,0.2,2,0.3,3l-3.9,1
					l0.5,3.2l4.1-0.2c0.2,0.8,0.5,1.7,0.8,2.5l-3.8,1.6l1.1,3l4.2-1c0.4,0.8,0.9,1.7,1.3,2.5l-3.8,2.6l1.7,2.7l4.4-2
					c0.5,0.7,1.1,1.3,1.6,2l-3.5,3.5l2.2,2.4l4.4-2.9c0.5,0.5,1.1,0.9,1.7,1.4l-2.6,4l2.7,1.9l3.5-3.5c0.8,0.5,1.6,0.9,2.4,1.3
					l-1.7,4.3l3,1.4l2.6-4c0.9,0.3,1.9,0.6,2.9,0.9l-0.5,4.7l3.3,0.6l1.4-4.4c0.7,0.1,1.5,0.2,2.2,0.2l0.5,4.5h3.4l0.5-4.5
					c1,0,1.9-0.1,2.8-0.3l1.4,4.4l3.3-0.6l-0.5-4.7c1-0.3,2-0.6,3-0.9l2.5,3.8l3-1.4l-1.6-4c0.8-0.4,1.5-0.8,2.3-1.2l2.9,3l2.7-1.9
					l-2.2-3.3c0.6-0.4,1.2-0.9,1.7-1.4l3.8,2.5l2.2-2.4l-3.1-3c0.6-0.7,1.2-1.4,1.8-2.1l4.4,2l1.7-2.7l-3.8-2.6
					c0.5-0.8,0.9-1.6,1.3-2.5l4.3,1l1.1-3l-3.8-1.6c0.3-0.8,0.5-1.6,0.8-2.5l4.1,0.2l0.5-3.2l-3.9-1
					C1035.8,116.6,1035.9,115.6,1036,114.6z M1031.1,112.7c0,3.9-3.2,7.1-7.3,7.1c-4.1,0-7.3-3.2-7.3-7.1s3.2-7.1,7.3-7.1
					S1031.1,108.8,1031.1,112.7z M993.7,134.3c0-3.9,3.2-7.1,7.3-7.1s7.3,3.2,7.3,7.1s-3.2,7.1-7.3,7.1S993.7,138.3,993.7,134.3z
					 M998,112.7c0-1.4,1.2-2.6,2.6-2.6c1.4,0,2.6,1.2,2.6,2.6s-1.2,2.6-2.6,2.6S998,114.2,998,112.7z M1001,98c-4,0-7.3-3.2-7.3-7.1
					s3.2-7.1,7.3-7.1s7.3,3.2,7.3,7.1C1008.2,94.8,1005,98,1001,98z M978.4,119.9c-4,0-7.3-3.2-7.3-7.1s3.2-7.1,7.3-7.1
					s7.3,3.2,7.3,7.1S982.4,119.9,978.4,119.9z"/>
			</g>
		</g>
		<g>
			<g>
				<g>
					<path class="st4" d="M957.6,110.9l2.2-0.2v-1.8l-2.2-0.2c0-0.5-0.1-0.9-0.1-1.4l2.3-0.6l-0.3-1.8l-2.5,0.2
						c-0.1-0.5-0.2-0.9-0.4-1.4l2.2-1l-0.6-1.7l-2.4,0.6c-0.2-0.5-0.5-0.9-0.7-1.4l2.1-1.5l-1-1.6l-2.5,1.1
						c-0.3-0.4-0.6-0.8-0.9-1.1l1.8-1.8l-1.2-1.4l-2.2,1.5c-0.3-0.3-0.6-0.6-1-0.8l1.3-2.1l-1.5-1.1l-1.7,1.8
						c-0.4-0.3-0.8-0.5-1.3-0.7l0.8-2.2l-1.7-0.8l-1.3,2.1c-0.6-0.2-1.1-0.4-1.7-0.6l0.2-2.5l-1.8-0.3l-0.7,2.4
						c-0.5-0.1-1.1-0.1-1.6-0.2L939,88h-1.9l-0.2,2.4c-0.5,0-1.1,0.1-1.6,0.2l-0.7-2.4l-1.8,0.3L933,91c-0.6,0.2-1.1,0.3-1.6,0.5
						l-1.4-2.2l-1.7,0.8l0.9,2.4c-0.5,0.2-0.9,0.5-1.3,0.8l-1.9-2l-1.5,1.1l1.4,2.2c-0.3,0.3-0.6,0.5-0.9,0.8l-2.4-1.6l-1.2,1.4
						l1.9,2c-0.3,0.4-0.6,0.7-0.9,1.1l-2.4-1.1l-1,1.6l2.1,1.5c-0.3,0.5-0.5,0.9-0.7,1.4l-2.4-0.6l-0.6,1.7l2.2,1
						c-0.1,0.5-0.3,0.9-0.4,1.4l-2.4-0.1l-0.3,1.8l2.3,0.6c-0.1,0.5-0.1,0.9-0.1,1.4l-2.2,0.2v1.8l2.2,0.2c0,0.6,0.1,1.1,0.2,1.7
						l-2.1,0.5l0.3,1.8l2.3-0.1c0.1,0.5,0.3,0.9,0.4,1.4l-2.1,0.9l0.6,1.7l2.3-0.5c0.2,0.5,0.5,0.9,0.7,1.4l-2.1,1.5l1,1.6l2.4-1.1
						c0.3,0.4,0.6,0.8,0.9,1.1l-1.9,2l1.2,1.4l2.4-1.6c0.3,0.3,0.6,0.5,0.9,0.8l-1.4,2.3l1.5,1.1l1.9-2c0.4,0.3,0.9,0.5,1.3,0.7
						l-0.9,2.4l1.7,0.8l1.4-2.3c0.5,0.2,1,0.3,1.6,0.5l-0.3,2.6l1.8,0.3l0.8-2.5c0.4,0.1,0.8,0.1,1.2,0.1l0.3,2.6h1.9l0.3-2.6
						c0.5,0,1-0.1,1.6-0.1l0.8,2.5l1.8-0.3l-0.3-2.6c0.6-0.1,1.1-0.3,1.7-0.5l1.4,2.1l1.7-0.8l-0.9-2.3c0.4-0.2,0.8-0.5,1.3-0.7
						l1.6,1.7l1.5-1.1l-1.2-1.9c0.3-0.3,0.6-0.5,0.9-0.8l2.1,1.4l1.2-1.4l-1.7-1.7c0.3-0.4,0.7-0.8,1-1.2l2.4,1.1l1-1.6l-2.1-1.5
						c0.3-0.5,0.5-0.9,0.7-1.4l2.4,0.5l0.6-1.7l-2.1-0.9c0.2-0.5,0.3-0.9,0.4-1.4l2.3,0.1l0.3-1.8l-2.1-0.5
						C957.5,112.1,957.5,111.5,957.6,110.9z M955,110c0,9.5-7.5,17.2-16.8,17.2s-16.8-7.7-16.8-17.2s7.5-17.2,16.8-17.2
						S955,100.5,955,110z"/>
					<ellipse class="st4" cx="938.2" cy="110" rx="15.6" ry="16.1"/>
				</g>
			</g>
		</g>
	</g>
	<g>
		<ellipse class="st36" cx="1250.5" cy="546.8" rx="67.8" ry="68.7"/>
		<path class="st4" d="M1222.1,539c0-5.9,5.4-10.7,12-10.7c1.2,0,2.3,0.2,3.4,0.4c-0.3-0.8-0.4-1.7-0.4-2.5c0-4.5,4-8.2,8.9-8.2
			c2.5,0,4.7,0.9,6.4,2.5c1.5-2,3.9-3.2,6.7-3.2c1.2,0,2.3,0.2,3.3,0.6c0.7-7,6.5-12.5,13.6-12.5c7.6,0,13.7,6.2,13.7,13.9
			c0,0.6,0,1.2-0.1,1.9c0.6-0.1,1.3-0.2,1.9-0.2c4.7,0,8.6,3.9,8.8,8.9c1-0.3,2-0.5,3.1-0.5c5.8,0,10.4,4.6,10.4,10.2
			c0,5-3.6,9.1-8.4,10c-0.4,0.1-0.9,0.2-1.3,0.2h-70.3c-0.2,0-0.4,0-0.6,0C1226.9,549.2,1222.1,544.6,1222.1,539z"/>
		<g>
			<g>
				<path class="st4" d="M1276.8,547.4c0-5.9-5.4-10.7-12-10.7c-1.2,0-2.3,0.2-3.4,0.4c0.3-0.8,0.4-1.7,0.4-2.5c0-4.5-4-8.2-8.9-8.2
					c-2.5,0-4.7,0.9-6.4,2.5c-1.5-2-3.9-3.2-6.7-3.2c-1.2,0-2.3,0.2-3.3,0.6c-0.7-7-6.5-12.5-13.6-12.5c-7.5,0-13.7,6.2-13.7,13.9
					c0,0.6,0,1.2,0.1,1.9c-0.6-0.1-1.3-0.2-1.9-0.2c-4.7,0-8.6,3.9-8.8,8.9c-1-0.3-2-0.5-3.1-0.5c-5.8,0-10.4,4.6-10.4,10.2
					c0,5,3.6,9.1,8.4,10c0.4,0.1,0.9,0.2,1.3,0.2h70.3c0.2,0,0.4,0,0.6,0C1272,557.6,1276.8,553,1276.8,547.4z"/>
			</g>
		</g>
		<g>
			<polygon class="st32" points="1263.8,610.2 1276.8,599.4 1223.3,527.1 1210.4,537.9 			"/>
			<polygon class="st37" points="1218,536.8 1225.6,530.4 1225.1,529.7 1217.5,536 			"/>
			<polygon class="st37" points="1224.8,546 1232.4,539.6 1231.9,538.9 1224.3,545.3 			"/>
			<polygon class="st37" points="1231.6,555.2 1239.3,548.9 1238.8,548.2 1231.1,554.5 			"/>
			<polygon class="st37" points="1238.5,564.5 1246.1,558.1 1245.6,557.4 1237.9,563.8 			"/>
			<polygon class="st37" points="1245.3,573.7 1252.9,567.4 1252.4,566.7 1244.8,573 			"/>
			<polygon class="st37" points="1251.8,582.6 1259.5,576.2 1259,575.5 1251.3,581.9 			"/>
			<polygon class="st37" points="1258.4,591.5 1266,585.1 1265.5,584.4 1257.9,590.8 			"/>
			<polygon class="st37" points="1265.4,601 1273,594.6 1272.5,593.9 1264.9,600.3 			"/>
			<polygon class="st37" points="1222.3,535.7 1226.8,531.9 1226.6,531.7 1222,535.5 			"/>
			<polygon class="st37" points="1223.3,537 1227.8,533.2 1227.5,533 1223,536.8 			"/>
			<polygon class="st37" points="1224.3,538.4 1228.8,534.6 1228.6,534.4 1224,538.2 			"/>
			<polygon class="st37" points="1225.3,539.8 1229.8,536 1229.6,535.8 1225.1,539.6 			"/>
			<polygon class="st37" points="1226.3,541.2 1230.8,537.4 1230.6,537.2 1226.1,541 			"/>
			<polygon class="st37" points="1229.1,545.1 1233.8,541.3 1233.5,541 1228.9,544.8 			"/>
			<polygon class="st37" points="1230.1,546.3 1234.6,542.6 1234.4,542.3 1229.9,546.1 			"/>
			<polygon class="st37" points="1231.1,547.7 1235.6,544 1235.5,543.7 1230.9,547.5 			"/>
			<polygon class="st37" points="1232.1,549.2 1236.8,545.4 1236.5,545.1 1232,548.9 			"/>
			<polygon class="st37" points="1233.3,550.6 1237.8,546.8 1237.5,546.5 1233,550.3 			"/>
			<polygon class="st37" points="1235.9,554.3 1240.5,550.5 1240.3,550.3 1235.8,554.1 			"/>
			<polygon class="st37" points="1236.9,555.6 1241.4,551.8 1241.3,551.6 1236.8,555.4 			"/>
			<polygon class="st37" points="1237.9,557 1242.5,553.2 1242.3,553 1237.8,556.8 			"/>
			<polygon class="st37" points="1239,558.4 1243.5,554.6 1243.3,554.4 1238.8,558.2 			"/>
			<polygon class="st37" points="1240,559.8 1244.5,556 1244.4,555.8 1239.8,559.6 			"/>
			<polygon class="st37" points="1242.6,563.3 1247.1,559.5 1247,559.3 1242.4,563.1 			"/>
			<polygon class="st37" points="1243.5,564.6 1248.1,560.8 1247.9,560.6 1243.4,564.4 			"/>
			<polygon class="st37" points="1244.6,566 1249.1,562.2 1248.9,562 1244.4,565.8 			"/>
			<polygon class="st37" points="1245.6,567.4 1250.1,563.6 1250,563.4 1245.4,567.2 			"/>
			<polygon class="st37" points="1246.6,568.8 1251.3,565 1251,564.8 1246.5,568.6 			"/>
			<polygon class="st37" points="1249.4,572.5 1253.9,568.8 1253.8,568.5 1249.3,572.3 			"/>
			<polygon class="st37" points="1250.4,573.8 1254.9,570 1254.8,569.8 1250.3,573.6 			"/>
			<polygon class="st37" points="1251.4,575.2 1255.9,571.5 1255.8,571.2 1251.3,575 			"/>
			<polygon class="st37" points="1252.4,576.6 1257,572.9 1256.8,572.6 1252.3,576.4 			"/>
			<polygon class="st37" points="1253.5,578 1258,574.3 1257.8,574 1253.3,577.8 			"/>
			<polygon class="st37" points="1256.1,581.6 1260.6,577.8 1260.4,577.5 1255.9,581.3 			"/>
			<polygon class="st37" points="1257,582.8 1261.5,579.1 1261.4,578.8 1256.8,582.6 			"/>
			<polygon class="st37" points="1258,584.2 1262.6,580.5 1262.4,580.2 1257.9,584 			"/>
			<polygon class="st37" points="1259.1,585.6 1263.6,581.9 1263.4,581.6 1258.9,585.4 			"/>
			<polygon class="st37" points="1260.1,587.1 1264.8,583.3 1264.5,583 1259.9,586.8 			"/>
			<polygon class="st37" points="1262.5,590.3 1267.1,586.5 1266.9,586.3 1262.4,590.1 			"/>
			<polygon class="st37" points="1263.5,591.6 1268,587.8 1267.9,587.6 1263.3,591.4 			"/>
			<polygon class="st37" points="1264.5,593 1269.1,589.2 1268.9,589 1264.3,592.8 			"/>
			<polygon class="st37" points="1265.6,594.4 1270.1,590.6 1269.9,590.4 1265.4,594.2 			"/>
			<polygon class="st37" points="1266.6,595.8 1271.1,592 1271,591.8 1266.4,595.6 			"/>
		</g>
		<g>
			<polygon class="st38" points="1231.4,596.4 1227.8,593 1274.6,538.2 1278.3,541.7 1278.3,541.7 			"/>
			<polygon class="st39" points="1235,599.9 1231.4,596.4 1278.3,541.7 1281.8,545.1 			"/>
			<polygon class="st38" points="1238.6,603.4 1235,599.9 1281.8,545.1 1285.4,548.6 			"/>
			<polygon class="st4" points="1236.6,605.8 1225.8,595.4 1227.8,593 1238.6,603.4 			"/>
			<g id="XMLID_4_">
				<g>
					<path class="st37" d="M1236.6,605.8l-2.3,2.7c-1,1.2-2.7,1.2-3.7,0.2l-7-6.7c-1-1-1.1-2.6-0.2-3.7l2.4-2.8L1236.6,605.8z"/>
				</g>
			</g>
			<g id="XMLID_3_">
				<g>
					<polygon class="st40" points="1286.4,539.8 1285.4,548.6 1274.6,538.2 1282.8,536.2 1282.8,536.3 1286.3,539.8 					"/>
					<polygon class="st37" points="1286.9,535.2 1286.4,539.8 1286.3,539.8 1282.8,536.3 1282.8,536.2 					"/>
				</g>
			</g>
		</g>
	</g>
	<g>
		<ellipse class="st41" cx="476.6" cy="571.8" rx="56.1" ry="55.2"/>
		<g>
			<g>
				<g>
					<g>
						<rect x="436.1" y="538.3" class="st42" width="80.6" height="49.7"/>
						<rect x="435.8" y="535.9" class="st43" width="81.2" height="6.3"/>
						<rect x="438.6" y="545.4" class="st44" width="21.4" height="2.1"/>
						<rect x="448.2" y="549.5" class="st45" width="33.8" height="2.6"/>
						<rect x="485.4" y="549.5" class="st46" width="22.6" height="2.6"/>
						<rect x="448.2" y="554.2" class="st47" width="24.2" height="2.6"/>
						<rect x="479.8" y="554.2" class="st48" width="16.4" height="2.6"/>
						<rect x="460.6" y="559.5" class="st24" width="30.5" height="2.6"/>
						<rect x="492.8" y="559.5" class="st44" width="14.7" height="2.6"/>
						<rect x="460.6" y="566.3" class="st25" width="27.1" height="2.6"/>
						<rect x="460.6" y="570.5" class="st24" width="16.9" height="2.6"/>
						<rect x="480.9" y="570.5" class="st48" width="13.5" height="2.6"/>
						<rect x="448.2" y="575.7" class="st45" width="24.2" height="2.6"/>
						<rect x="438.6" y="581.4" class="st24" width="13.5" height="2.6"/>
					</g>
					<g>
						<polygon class="st33" points="486.6,601.1 484.6,602.5 465.7,576.7 467.7,575.3 						"/>
						<path class="st49" d="M489.8,603l0.8,1.2c0.3,0.4,0.9,0.5,1.4,0.2l0,0c0.4-0.3,1.1-0.2,1.4,0.2l7.9,10.8
							c0.3,0.4,0.2,1-0.2,1.3l-6,4.1c-0.4,0.3-1.1,0.2-1.4-0.2l-7.9-10.8c-0.3-0.4-0.2-1,0.2-1.3l0,0c0.4-0.3,0.6-0.9,0.2-1.3
							l-0.8-1.2c-0.3-0.4-0.9-0.5-1.4-0.2l0,0c-0.4,0.3-1.1,0.2-1.4-0.2l-0.6-0.8c-0.3-0.4-0.2-1,0.2-1.3l6.4-4.3
							c0.4-0.3,1.1-0.2,1.4,0.2l0.6,0.8c0.3,0.4,0.2,1-0.2,1.3l-0.4,0.3C489.6,602,489.5,602.6,489.8,603z"/>
						<path class="st50" d="M496.7,616.2l-0.7,0.5c-0.4,0.2-0.9,0.2-1.1-0.2l-5.3-7.2c-0.3-0.3-0.2-0.8,0.2-1.1l0.7-0.5
							c0.4-0.2,0.9-0.2,1.1,0.2l5.3,7.2C497.2,615.4,497.1,615.9,496.7,616.2z"/>
						<path class="st51" d="M499.4,614.9L499.4,614.9c-0.4,0.2-0.9,0.2-1.1-0.2l-5.3-7.2c-0.3-0.3-0.2-0.8,0.2-1.1l0,0
							c0.4-0.2,0.9-0.2,1.1,0.2l5.3,7.2C499.9,614.2,499.8,614.7,499.4,614.9z"/>
						<path class="st51" d="M493.9,618.6L493.9,618.6c-0.4,0.2-0.9,0.2-1.1-0.2l-5.3-7.2c-0.3-0.3-0.2-0.8,0.2-1.1l0,0
							c0.4-0.2,0.9-0.2,1.1,0.2l5.3,7.2C494.3,617.9,494.3,618.4,493.9,618.6z"/>
						<polygon class="st33" points="466.8,577.6 468.2,576.6 467.1,573.7 464.3,571.8 463.4,572.5 464.3,575.6 						"/>
					</g>
					<g>
						<path class="st52" d="M464.5,617.9c-2.3,2.9-6.2,4-9.8,3l4-5c1.1-1.4,0.7-3.4-0.8-4.4l-0.6-0.4c-1.5-1-3.7-0.8-4.8,0.6
							l-3.8,4.7c-1.5-2.8-1.4-6.2,0.7-8.8c1.9-2.4,4.9-3.5,7.9-3.3l16.8-21.2c-1.1-2.6-0.8-5.6,1.1-8c2.3-2.9,6.2-4,9.8-3l-4,5
							c-1.1,1.4-0.7,3.4,0.8,4.4l0.6,0.4c1.5,1,3.7,0.8,4.8-0.6l3.8-4.7c1.5,2.8,1.4,6.2-0.7,8.8s-5.5,3.8-8.9,3.2l-16.3,20.5
							C466.7,611.8,466.6,615.2,464.5,617.9z"/>
					</g>
				</g>
			</g>
		</g>
	</g>
	<ellipse class="st8" cx="103.7" cy="109" rx="32.6" ry="32.4"/>
</g>
</svg>
