<?xml version="1.0" encoding="utf-8"?>
<!-- Generator: Adobe Illustrator 23.0.3, SVG Export Plug-In . SVG Version: 6.00 Build 0)  -->
<svg version="1.1" id="Layer_1" xmlns="http://www.w3.org/2000/svg" xmlns:xlink="http://www.w3.org/1999/xlink" x="0px" y="0px"
	 viewBox="0 0 1580 660" style="enable-background:new 0 0 1580 660;" xml:space="preserve">
<style type="text/css">
	.st0{fill:#0093BE;}
	.st1{fill:none;stroke:#FFFFFF;stroke-width:2;stroke-miterlimit:10;}
	.st2{fill:none;stroke:#FFFFFF;stroke-width:3;stroke-miterlimit:10;}
	.st3{fill:none;stroke:#FFFFFF;stroke-width:4;stroke-miterlimit:10;}
	.st4{opacity:0.4;fill:none;stroke:#FFFFFF;stroke-width:4;stroke-miterlimit:10;enable-background:new    ;}
	.st5{opacity:0.2;}
	.st6{fill:#FFFFFF;}
	.st7{fill:#0677A6;}
	.st8{opacity:0.2;fill:#FFFFFF;stroke:#FFFFFF;stroke-width:4;stroke-miterlimit:10;enable-background:new    ;}
	.st9{fill:#0093BE;stroke:#0093BE;stroke-miterlimit:10;}
	.st10{fill:#F4833C;stroke:#F4833C;stroke-width:6;stroke-miterlimit:10;}
	.st11{fill:#E7C21F;stroke:#E7C21F;stroke-miterlimit:10;}
	.st12{fill:#4E4F4F;}
	.st13{fill:#0593C2;stroke:#0593C2;stroke-miterlimit:10;}
	.st14{fill:#FFFFFF;stroke:#B4B2B4;stroke-miterlimit:10;}
	.st15{fill:#B4B2B4;stroke:#B4B2B4;stroke-miterlimit:10;}
	.st16{fill:#818181;}
	.st17{fill:#9ABEE3;stroke:#9ABEE3;stroke-width:6;stroke-miterlimit:10;}
	.st18{fill:#ABDAF5;stroke:#010101;stroke-width:0.5;stroke-miterlimit:10;}
	.st19{fill:#E7C21F;stroke:#010101;stroke-width:0.5;stroke-miterlimit:10;}
	.st20{fill:#B4B2B4;stroke:#010101;stroke-width:0.5;stroke-miterlimit:10;}
	.st21{fill:#0593C2;stroke:#010101;stroke-width:0.5;stroke-miterlimit:10;}
	.st22{fill:#57C2EF;}
	.st23{fill:#BBA030;}
	.st24{fill:#057DA4;}
	.st25{fill:#C66B2E;stroke:#C66B2E;stroke-miterlimit:10;}
	.st26{fill:#979797;}
	.st27{fill:none;stroke:#979797;stroke-miterlimit:10;}
	.st28{fill:#E5AD25;}
	.st29{fill:#0378AE;}
	.st30{fill:#E7C21F;stroke:#E7C21F;stroke-width:6;stroke-miterlimit:10;}
	.st31{fill:#FFFFFF;stroke:#FFFFFF;stroke-width:2;stroke-miterlimit:10;}
	.st32{fill:#E5AD25;stroke:#E5AD25;stroke-miterlimit:10;}
	.st33{fill:#0378AE;stroke:#0378AE;stroke-miterlimit:10;}
	.st34{fill:#355F9E;stroke:#0378AE;stroke-miterlimit:10;}
	.st35{fill:#E19326;stroke:#E5AD25;stroke-miterlimit:10;}
	.st36{fill:#ABDAF5;stroke:#ABDAF5;stroke-width:6;stroke-miterlimit:10;}
	.st37{fill:#221F1F;}
	.st38{fill:#C82129;}
	.st39{fill:#E14C26;}
	.st40{fill:#FEC770;}
</style>
<rect class="st0" width="1580" height="660"/>
<g>
	<g>
		<path class="st1" d="M451.9,564.8c0,2.9-0.8,5.7-2.3,8c-1.3,2.1-3.2,3.8-5.3,5c-2.1,1.2-4.6,1.9-7.2,1.9
			c-8.2,0-14.8-6.7-14.8-14.9s6.6-14.9,14.8-14.9C445.3,549.9,451.9,556.6,451.9,564.8z"/>
		<path class="st1" d="M458.1,586.5c-1.4,1.4-3.8,1.4-5.2,0l-8.4-8.4c-0.1-0.1-0.2-0.2-0.3-0.3c2.2-1.2,4-3,5.3-5l0.1,0.1l8.4,8.4
			C459.6,582.8,459.6,585.1,458.1,586.5z"/>
		<ellipse class="st1" cx="437.2" cy="564.7" rx="11" ry="11.3"/>
		<path class="st1" d="M455.7,595.1h-31.2c-5.2,0-9.4-4.2-9.4-9.4v-31.8c0-5.2,4.2-9.4,9.4-9.4h31.2c5.2,0,9.4,4.2,9.4,9.4v31.8
			C465.2,590.9,460.9,595.1,455.7,595.1z"/>
	</g>
	<line class="st2" x1="257.2" y1="213.2" x2="257.2" y2="393.4"/>
	<line class="st2" x1="322.6" y1="146.8" x2="397.7" y2="146.8"/>
	<line class="st2" x1="397.7" y1="56.1" x2="397.7" y2="148.2"/>
	<line class="st2" x1="940.2" y1="215.9" x2="577.1" y2="215.9"/>
	<line class="st2" x1="577.1" y1="167.1" x2="577.1" y2="217.3"/>
	<line class="st2" x1="1004.2" y1="217.3" x2="1083.5" y2="217.3"/>
	<line class="st2" x1="1083.5" y1="114.3" x2="1083.5" y2="218.6"/>
	<line class="st2" x1="739.9" y1="71.6" x2="739.9" y2="214.6"/>
	<line class="st3" x1="1411.9" y1="218.6" x2="1411.9" y2="375.8"/>
	<line class="st3" x1="1083.5" y1="373.7" x2="1413.9" y2="373.7"/>
	<line class="st2" x1="1083.5" y1="372" x2="1083.5" y2="597.9"/>
	<line class="st2" x1="1083.5" y1="561.4" x2="1167" y2="561.4"/>
	<line class="st2" x1="1246.3" y1="561.4" x2="1446.6" y2="561.4"/>
	<line class="st2" x1="1083.5" y1="393.4" x2="84.7" y2="393.4"/>
	<ellipse class="st3" cx="397" cy="50" rx="9" ry="8.8"/>
	<ellipse class="st3" cx="77" cy="394.1" rx="9.7" ry="9.5"/>
	<ellipse class="st3" cx="739.9" cy="61.5" rx="10.4" ry="10.2"/>
	<ellipse class="st3" cx="1083.5" cy="107.5" rx="9" ry="8.8"/>
	<ellipse class="st3" cx="1456.7" cy="561" rx="11.5" ry="11.2"/>
	<line class="st4" x1="270.4" y1="218.5" x2="270.4" y2="393.4"/>
	<line class="st4" x1="416.5" y1="394.6" x2="416.5" y2="519.4"/>
	<line class="st4" x1="1085.6" y1="548.5" x2="1166.3" y2="548.5"/>
	<line class="st4" x1="1247" y1="548.5" x2="1375" y2="548.5"/>
	<line class="st4" x1="323.2" y1="134" x2="447.1" y2="134"/>
	<line class="st4" x1="750.3" y1="104.2" x2="750.3" y2="215.2"/>
	<line class="st4" x1="577.8" y1="203" x2="747.6" y2="203"/>
	<line class="st4" x1="1070.3" y1="150.2" x2="1070.3" y2="215.2"/>
	<line class="st4" x1="982.7" y1="258.6" x2="982.5" y2="384.5"/>
	<line class="st4" x1="270.7" y1="384.5" x2="1493.2" y2="384.6"/>
	<line class="st2" x1="971.5" y1="393.4" x2="971.5" y2="236.9"/>
	<ellipse class="st4" cx="1501.2" cy="384.9" rx="11.5" ry="11.2"/>
	<line class="st2" x1="440.1" y1="394.3" x2="440.1" y2="544.4"/>
	<g class="st5">
		<path class="st6" d="M1268.2,124.1c0,0-1.2,1.7-0.5,3.1c0,0,1.9,3.7-1.6,5.5c0,0-1,1.1-0.5,2.1c0,0,1.3,2.4-1.8,3.6
			c0,0-9,4.9-23.3,0.8c-3.2-0.9-5.7-2.3-7.5-3.9l-0.3-22.2c0.7-0.4,1.4-0.8,1.7-1.1c0,0,1.9-5.2,6.6-6.8c0,0,4.2-0.8,5-8.9
			c0,0,1.8-6.7,5.6-2.9c0,0,2.9,1.8,1.3,13.7c0,0-0.5,2.5-1.7,3.6c0,0,10.2-2.7,17.3,0.3c0,0,2.8,2.3,0.5,5.5c0,0-0.1,1,0.4,1.2
			C1269.4,117.7,1273.7,121.3,1268.2,124.1z"/>
		<polygon class="st6" points="1232.7,111.3 1233,137.4 1222.9,137.5 1222.6,111.4 		"/>
	</g>
	<g class="st5">
		<path class="st6" d="M574.3,555.1c0,0-1.7,1.9-0.7,3.5c0,0,2.7,4.2-2.3,6.3c0,0-1.4,1.3-0.7,2.4c0,0,1.9,2.7-2.6,4.1
			c0,0-12.7,5.6-32.7,1c-4.5-1-7.9-2.6-10.6-4.4l-0.3-25.2c1-0.4,2-0.9,2.3-1.3c0,0,2.6-5.9,9.3-7.8c0,0,5.9-0.9,7.1-10.1
			c0,0,2.5-7.6,7.9-3.3c0,0,4,2.1,1.7,15.6c0,0-0.7,2.8-2.4,4.1c0,0,14.3-3.1,24.3,0.3c0,0,3.9,2.7,0.7,6.2c0,0-0.2,1.2,0.6,1.3
			C576,547.9,582,552,574.3,555.1z"/>
		<polygon class="st6" points="524.5,540.7 524.8,570.3 510.6,570.5 510.2,540.9 		"/>
	</g>
	<g class="st5">
		<g>
			<path class="st6" d="M1331.6,316.6c-5.5,0-9.9-4.5-9.9-10V285c0-1.4,0.3-2.7,0.8-4c1.6-3.7,5.1-6,9.1-6h43.1c3.6,0,6.9,2,8.7,5.2
				c0.8,1.5,1.2,3.1,1.2,4.8v21.6c0,5.5-4.4,10-9.9,10H1331.6z"/>
			<path class="st7" d="M1374.7,276.5c3.1,0,5.9,1.7,7.4,4.4c0.7,1.3,1,2.6,1,4.1v21.6c0,4.7-3.8,8.5-8.4,8.5h-43.1
				c-4.6,0-8.4-3.8-8.4-8.5V285c0-1.2,0.2-2.3,0.7-3.4c1.3-3.1,4.4-5.1,7.7-5.1H1374.7 M1374.7,273.5h-43.1c-4.7,0-8.7,2.9-10.5,6.9
				c-0.6,1.4-0.9,3-0.9,4.6v21.6c0,6.4,5.1,11.5,11.4,11.5h43.1c6.3,0,11.4-5.2,11.4-11.5V285c0-2-0.5-3.9-1.4-5.5
				C1382.8,275.9,1379,273.5,1374.7,273.5L1374.7,273.5z"/>
		</g>
		<g>
			<path class="st6" d="M1353.4,303.7c-1.9,0-3.7-0.7-5-2.1l-0.1-0.1L1323,280c1.8-3.1,5-5,8.6-5h43.1c3.2,0,6.2,1.6,8.1,4.2
				l-24.4,22.3C1357.1,303,1355.3,303.7,1353.4,303.7z"/>
			<path class="st7" d="M1374.7,276.5c2.3,0,4.5,1,6,2.6l-23.3,21.4l-0.1,0.1l-0.1,0.1c-1.1,1.1-2.5,1.7-3.9,1.7s-2.9-0.6-3.9-1.7
				l-0.1-0.1l-0.1-0.1l-24.3-20.6c1.6-2,4-3.3,6.6-3.3h43.2 M1374.7,273.5h-43.1c-4.7,0-8.7,2.9-10.5,6.9l26.2,22.2
				c1.7,1.7,3.9,2.6,6.1,2.6s4.4-0.9,6.1-2.6l25.3-23.2C1382.8,275.9,1379,273.5,1374.7,273.5L1374.7,273.5z"/>
		</g>
	</g>
	<g class="st5">
		<g>
			<path class="st6" d="M94.7,303.1c-6.9,0-12.5-5.4-12.5-12.1v-25.5c0-1.7,0.3-3.3,1-4.8c2-4.4,6.5-7.3,11.5-7.3h53.1
				c4.6,0,8.8,2.4,11,6.3c1,1.8,1.5,3.8,1.5,5.8V291c0,6.7-5.6,12.1-12.5,12.1H94.7z"/>
			<path class="st7" d="M147.8,254.8c4.1,0,7.8,2.1,9.7,5.6c0.9,1.6,1.3,3.3,1.3,5.1V291c0,5.9-5,10.6-11,10.6H94.7
				c-6.1,0-11-4.8-11-10.6v-25.5c0-1.5,0.3-2.9,0.9-4.2c1.7-3.9,5.7-6.4,10.1-6.4h53.1 M147.8,251.8H94.7c-5.8,0-10.7,3.4-12.9,8.2
				c-0.7,1.7-1.2,3.5-1.2,5.4v25.5c0,7.5,6.3,13.6,14,13.6h53.1c7.8,0,14-6.1,14-13.6v-25.5c0-2.4-0.6-4.6-1.7-6.5
				C157.8,254.7,153.1,251.8,147.8,251.8L147.8,251.8z"/>
		</g>
		<g>
			<path class="st6" d="M121.5,287.8c-2.4,0-4.7-0.9-6.4-2.6l-0.1-0.1l-31.3-25.5c2.2-3.9,6.4-6.3,11-6.3h53.1c4.2,0,8.1,2,10.4,5.3
				L128,285.2C126.3,286.9,124,287.8,121.5,287.8z"/>
			<path class="st7" d="M147.8,254.8c3.2,0,6.2,1.4,8.3,3.6L127,284h-0.1l-0.1,0.1c-1.4,1.4-3.4,2.2-5.4,2.2s-4-0.8-5.4-2.2
				l-0.1-0.1l-0.1-0.1l-30.3-24.7c2-2.8,5.4-4.5,9-4.5h53.3 M147.8,251.8H94.7c-5.8,0-10.7,3.4-12.9,8.2l32.2,26.3
				c2.1,2,4.8,3,7.5,3s5.4-1,7.5-3l31.1-27.4C157.8,254.7,153.1,251.8,147.8,251.8L147.8,251.8z"/>
		</g>
	</g>
	<g>
		<path class="st8" d="M860,117h-37.2c-9.3,0-16.9-7.6-16.9-16.9V62.8c0-9.3,7.6-16.9,16.9-16.9H860c9.3,0,16.9,7.6,16.9,16.9V100
			C876.9,109.4,869.4,117,860,117z"/>
		<g>
			<path class="st9" d="M823.7,62.9c0,0-7.6,8.1,0.9,19.9s20.2,20,31.7,19.6c0,0,4.7-0.8,7.9-4.5c0,0,1.1-1.9-1.1-4.2l-6.8-6.8
				c0,0-3.1-1.4-5.7,1.2l-2.3,2c0,0-9-1.1-15-14l4.4-4.1c0,0,2-0.3-1.2-4.2l-6.1-6.5c0,0-4.2-0.5-5.4,0.5L823.7,62.9z"/>
		</g>
	</g>
	<path class="st8" d="M167.2,511.2h-13.6c-9.3,0-16.9-7.6-16.9-16.9v-12.9c0-9.3,7.6-16.9,16.9-16.9h13.6c9.3,0,16.9,7.6,16.9,16.9
		v12.9C184.1,503.6,176.6,511.2,167.2,511.2z"/>
	<g>
		<path class="st9" d="M148.6,475.7c0,0-5,5.3,0.6,13.1s13.5,13.2,21.1,12.9c0,0,3.1-0.6,5.2-3c0,0,0.7-1.2-0.7-2.7l-4.5-4.4
			c0,0-2.1-0.9-3.8,0.8l-1.5,1.3c0,0-6-0.8-10-9.2l3-2.7c0,0,1.3-0.2-0.8-2.7l-4.1-4.3c0,0-2.8-0.3-3.6,0.3L148.6,475.7z"/>
	</g>
	<g>
		<ellipse class="st10" cx="976.1" cy="214.1" rx="52.8" ry="50.4"/>
		<g>
			<g>
				<g>
					<rect x="941.7" y="217.8" class="st11" width="42.5" height="31.9"/>
					<rect x="943.9" y="220.5" class="st12" width="11.3" height="1.5"/>
					<rect x="943.9" y="226.5" class="st12" width="34.5" height="1.1"/>
					<rect x="943.9" y="229.5" class="st12" width="34.5" height="1.1"/>
					<rect x="943.9" y="232.5" class="st12" width="15.5" height="1.1"/>
					<rect x="943.9" y="235.7" class="st12" width="34.5" height="1.1"/>
					<rect x="943.9" y="238.5" class="st12" width="34.5" height="1.1"/>
					<rect x="943.9" y="241.3" class="st12" width="34.5" height="1.1"/>
				</g>
			</g>
		</g>
		<g>
			<g>
				<g>
					<rect x="978.4" y="180.1" class="st13" width="30.5" height="37.7"/>
					<rect x="980.8" y="182.2" class="st12" width="11.3" height="1.5"/>
					<rect x="980.8" y="185.4" class="st12" width="1.2" height="1.1"/>
					<rect x="980.8" y="188" class="st12" width="1.2" height="1.1"/>
					<rect x="980.8" y="190.5" class="st12" width="1.2" height="1.1"/>
					<rect x="980.8" y="192.9" class="st12" width="1.2" height="1.1"/>
					<rect x="984.3" y="185.4" class="st12" width="6.2" height="1.1"/>
					<rect x="984.3" y="188" class="st12" width="10.7" height="1.1"/>
					<rect x="984.3" y="190.5" class="st12" width="8" height="1.1"/>
					<rect x="984.3" y="192.9" class="st12" width="7.4" height="1.1"/>
					<rect x="980.8" y="198.2" class="st12" width="11.3" height="1.5"/>
					<rect x="981.2" y="202.9" class="st12" width="1.2" height="1.1"/>
					<rect x="981.2" y="205.5" class="st12" width="1.2" height="1.1"/>
					<rect x="981.2" y="207.9" class="st12" width="1.2" height="1.1"/>
					<rect x="981.2" y="210.4" class="st12" width="1.2" height="1.1"/>
					<rect x="984.7" y="202.9" class="st12" width="14.6" height="1.1"/>
					<rect x="984.7" y="205.5" class="st12" width="10.7" height="1.1"/>
					<rect x="984.7" y="207.9" class="st12" width="12.6" height="1.1"/>
					<rect x="984.7" y="210.4" class="st12" width="7.4" height="1.1"/>
				</g>
			</g>
		</g>
		<g>
			<g>
				<g>
					<g>
						<polygon class="st14" points="980.7,185.9 980.7,205.6 941.5,205.6 941.5,181.4 973.6,181.4 						"/>
						<polygon class="st15" points="980.5,186 973.7,185.7 973.4,181.5 						"/>
					</g>
					<rect x="943.5" y="184.1" class="st16" width="9.7" height="1.1"/>
					<rect x="943.7" y="188.6" class="st16" width="27.4" height="1.1"/>
					<rect x="944.1" y="190.9" class="st16" width="8.7" height="1.3"/>
					<rect x="954.2" y="190.9" class="st16" width="8.7" height="1.3"/>
					<rect x="944.1" y="193.9" class="st16" width="8.7" height="1.3"/>
					<rect x="944.1" y="196.9" class="st16" width="8.7" height="1.3"/>
					<rect x="944.1" y="199.9" class="st16" width="8.7" height="1.3"/>
					<rect x="954.2" y="193.9" class="st16" width="8.7" height="1.3"/>
					<rect x="954.2" y="196.9" class="st16" width="8.7" height="1.3"/>
					<rect x="954.2" y="199.9" class="st16" width="8.7" height="1.3"/>
				</g>
			</g>
		</g>
		<g>
			<g>
				<g>
					<g>
						<polygon class="st14" points="976.1,226.2 976.1,245.9 1015.2,245.9 1015.2,221.7 983.2,221.7 						"/>
						<polygon class="st15" points="976.3,226.3 983.1,226 983.3,221.8 						"/>
					</g>
					<rect x="1003.6" y="224.4" class="st16" width="9.7" height="1.1"/>
					<rect x="985.6" y="228.9" class="st16" width="27.4" height="1.1"/>
					<rect x="1004" y="231.2" class="st16" width="8.7" height="1.3"/>
					<rect x="993.9" y="231.2" class="st16" width="8.7" height="1.3"/>
					<rect x="1004" y="234.2" class="st16" width="8.7" height="1.3"/>
					<rect x="1004" y="237.2" class="st16" width="8.7" height="1.3"/>
					<rect x="1004" y="240.2" class="st16" width="8.7" height="1.3"/>
					<rect x="993.9" y="234.2" class="st16" width="8.7" height="1.3"/>
					<rect x="993.9" y="237.2" class="st16" width="8.7" height="1.3"/>
					<rect x="993.9" y="240.2" class="st16" width="8.7" height="1.3"/>
				</g>
			</g>
		</g>
	</g>
	<g>
		<ellipse class="st17" cx="577" cy="122.9" rx="45.1" ry="42.5"/>
		<g>
			<path class="st18" d="M584.6,114.4h-42c-2,0-3.6-1.6-3.6-3.6v-2.3c0-2,1.6-3.6,3.6-3.6h42c2,0,3.6,1.6,3.6,3.6v2.3
				C588.2,112.8,586.6,114.4,584.6,114.4z"/>
			<path class="st19" d="M587.3,124h-41.9c-2,0-3.6-1.6-3.6-3.6v-2.3c0-2,1.6-3.6,3.6-3.6h41.9c2,0,3.6,1.6,3.6,3.6v2.3
				C590.9,122.4,589.3,124,587.3,124z"/>
			<path class="st20" d="M582.9,133.6H541c-2,0-3.6-1.6-3.6-3.6v-2.3c0-2,1.6-3.6,3.6-3.6h41.9c2,0,3.6,1.6,3.6,3.6v2.3
				C586.6,132,584.9,133.6,582.9,133.6z"/>
			<path class="st21" d="M582.9,143.1H541c-2,0-3.6-1.6-3.6-3.6v-2.3c0-2,1.6-3.6,3.6-3.6h41.9c2,0,3.6,1.6,3.6,3.6v2.3
				C586.6,141.5,584.9,143.1,582.9,143.1z"/>
			<path class="st22" d="M586,111.8h-44.9c-0.9,0-1.6-0.7-1.6-1.6v-1c0-0.9,0.7-1.6,1.6-1.6H586c0.9,0,1.6,0.7,1.6,1.6v1
				C587.6,111.1,586.9,111.8,586,111.8z"/>
			<path class="st23" d="M588.8,121.4h-44.9c-0.9,0-1.6-0.7-1.6-1.6v-1c0-0.9,0.7-1.6,1.6-1.6h44.9c0.9,0,1.6,0.7,1.6,1.6v1
				C590.4,120.6,589.7,121.4,588.8,121.4z"/>
			<path class="st16" d="M584.4,130.9h-44.9c-0.9,0-1.6-0.7-1.6-1.6v-1c0-0.9,0.7-1.6,1.6-1.6h44.9c0.9,0,1.6,0.7,1.6,1.6v1
				C586,130.2,585.3,130.9,584.4,130.9z"/>
			<path class="st24" d="M584.4,140.5h-44.9c-0.9,0-1.6-0.7-1.6-1.6v-1c0-0.9,0.7-1.6,1.6-1.6h44.9c0.9,0,1.6,0.7,1.6,1.6v1
				C586,139.8,585.3,140.5,584.4,140.5z"/>
		</g>
		<g>
			<g>
				<g>
					<path class="st25" d="M612.9,142.3L612.9,142.3c-1.3,1.1-3.1,0.9-4.2-0.3l-30.6-35c-1.1-1.2-1.5-2.9-0.3-4l0,0
						c1.3-1.1,2.9-0.4,4,0.8l31.4,34.3C614.3,139.4,614.1,141.3,612.9,142.3z"/>
					<g>
						<g>
							<g>
								<path class="st26" d="M572.6,134.9c-3.3-21.8,7.1-37.7,39.3-34.5C590.4,100.4,572.9,115.8,572.6,134.9L572.6,134.9z"/>
							</g>
							<g>
								<path class="st27" d="M572.6,135.4c0-0.2,0-0.4,0-0.5c0.3-19.1,17.8-34.5,39.3-34.5"/>
								<path class="st27" d="M572.6,134.9c-3.3-21.8,7.1-37.7,39.3-34.5"/>
							</g>
						</g>
					</g>
				</g>
			</g>
		</g>
	</g>
	<g>
		<ellipse class="st10" cx="263.4" cy="156.4" rx="79.3" ry="75"/>
		<g id="XMLID_6_">
			<g>
				<g>
					<path class="st28" d="M308.5,156.2c0,19.5,1.1,39,3.4,58.4c-16.3-2.7-32.7-4.1-49-4.1v-0.1c0-18.1,0-36.2,0-54.2
						C278.1,156.2,293.2,156.2,308.5,156.2C308.4,156.2,308.4,156.2,308.5,156.2z"/>
					<path class="st29" d="M311.9,98c-2.3,19.4-3.4,38.8-3.4,58.2h-0.1c-15.2,0-30.3,0-45.5,0c0-18,0-36.1,0-54.1
						C279.2,102.1,295.6,100.7,311.9,98z"/>
					<path class="st29" d="M262.9,210.4v0.1c-16.3,0-32.5,1.4-48.8,4.1c2.3-19.5,3.4-39,3.4-58.4c15.1,0,30.3,0,45.4,0
						C262.9,174.3,262.9,192.4,262.9,210.4z"/>
					<path class="st28" d="M262.9,102.1c0,18,0,36.1,0,54.1c-15.1,0-30.3,0-45.4,0c0-19.4-1.1-38.8-3.4-58.2
						C230.4,100.7,246.6,102.1,262.9,102.1z"/>
				</g>
			</g>
		</g>
		<g>
			<g>
				<path class="st6" d="M250.8,172.8l-1.5-1.5l-3.7,2.6c-1.1-0.7-2.3-1.2-3.5-1.4l-0.5-4.5l-2-0.2l-0.8,4.7
					c-1.6,0.2-3.2,0.8-4.5,1.8l-3.7-2.8l-1.4,1.4l2.9,3.6c-1.1,1.6-1.7,3.4-1.7,5.2l-4.3,0.7l0.2,2l4.5,0.6c0.3,1,0.8,2,1.4,3
					l-2.9,3.7l1.5,1.5l3.8-2.8c1,0.7,2.1,1.3,3.2,1.6l0.5,4.8l2,0.2l0.8-4.7c1.9-0.1,3.8-0.7,5.3-1.9l3.8,2.7l1.3-1.4l-2.9-3.5
					c1.1-1.5,1.7-3.3,1.8-5.2l4.5-0.6l-0.2-2l-4.7-0.5c-0.3-1.3-1-2.5-1.8-3.6L250.8,172.8z M244.7,186.6c-2.2,2.3-6,2.2-8.5-0.2
					s-2.7-6.2-0.4-8.5c2.2-2.3,6-2.2,8.5,0.2C246.7,180.5,246.9,184.3,244.7,186.6z"/>
			</g>
		</g>
		<g>
			<g>
				<path class="st6" d="M316.9,154l3.7-0.4v-3.1l-3.7-0.3c0-0.8-0.1-1.5-0.2-2.3l3.8-1l-0.5-3l-4.1,0.2c-0.2-0.8-0.4-1.6-0.7-2.3
					l3.7-1.6l-1-2.9l-4.1,0.9c-0.4-0.8-0.8-1.6-1.2-2.3l3.6-2.6l-1.6-2.6l-4.1,1.9c-0.5-0.6-1-1.3-1.5-1.9l3-3.1l-2-2.3l-3.7,2.5
					c-0.5-0.5-1.1-1-1.6-1.4l2.2-3.5l-2.5-1.9l-2.9,3c-0.7-0.4-1.4-0.8-2.2-1.2l1.4-3.7l-2.8-1.3l-2.2,3.5c-0.9-0.4-1.9-0.7-2.9-0.9
					l0.4-4.3l-3.1-0.6l-1.2,4c-0.9-0.1-1.8-0.2-2.7-0.3l-0.4-4h-3.1l-0.4,4c-0.9,0.1-1.8,0.1-2.7,0.3l-1.2-4l-3.1,0.6l0.4,4.3
					c-0.9,0.3-1.8,0.5-2.7,0.9l-2.3-3.7l-2.8,1.3l1.5,4c-0.8,0.4-1.5,0.8-2.2,1.3l-3.2-3.3l-2.5,1.9l2.4,3.8c-0.5,0.4-1,0.9-1.5,1.3
					l-4-2.8l-2,2.3l3.3,3.3c-0.5,0.6-1,1.2-1.5,1.9l-4.1-1.9l-1.6,2.6l3.6,2.6c-0.4,0.8-0.8,1.5-1.2,2.3l-4.1-0.9l-1,2.9l3.7,1.6
					c-0.3,0.8-0.5,1.5-0.7,2.3l-4-0.2l-0.5,3l3.8,1c-0.1,0.8-0.2,1.5-0.2,2.3l-3.6,0.3v3.1l3.7,0.4c0.1,1,0.1,1.9,0.3,2.9l-3.6,0.9
					l0.5,3l3.8-0.2c0.2,0.8,0.4,1.6,0.7,2.4l-3.5,1.6l1,2.9l3.9-0.9c0.4,0.8,0.8,1.6,1.3,2.4l-3.5,2.5l1.6,2.6l4.1-1.9
					c0.5,0.6,1,1.3,1.5,1.9l-3.3,3.3l2,2.3l4.1-2.8c0.5,0.4,1,0.9,1.5,1.3L262,182l2.5,1.9l3.3-3.4c0.7,0.4,1.5,0.9,2.2,1.2
					l-1.6,4.1l2.8,1.3l2.4-3.9c0.9,0.3,1.8,0.6,2.7,0.8l-0.4,4.5l3.1,0.6l1.3-4.3c0.7,0.1,1.4,0.2,2.1,0.2l0.4,4.3h3.1l0.4-4.3
					c0.9,0,1.8-0.1,2.6-0.2l1.3,4.3l3.1-0.6l-0.4-4.5c1-0.3,1.9-0.5,2.8-0.9l2.3,3.6l2.8-1.3l-1.5-3.9c0.7-0.4,1.4-0.8,2.1-1.2
					l2.7,2.8l2.5-1.9l-2-3.2c0.5-0.4,1.1-0.9,1.6-1.3l3.6,2.4l2-2.3l-2.8-2.9c0.6-0.7,1.1-1.3,1.7-2l4.1,1.9l1.6-2.6l-3.5-2.5
					c0.4-0.8,0.9-1.6,1.3-2.4l4,0.9l1-2.9l-3.5-1.6c0.3-0.8,0.5-1.6,0.7-2.4l3.8,0.2l0.5-3l-3.6-0.9C316.8,156,316.9,155,316.9,154z
					 M312.4,152.3c0,3.8-3,6.8-6.7,6.8s-6.7-3.1-6.7-6.8c0-3.8,3-6.8,6.7-6.8C309.3,145.4,312.4,148.5,312.4,152.3z M277.6,172.9
					c0-3.8,3-6.8,6.7-6.8s6.7,3.1,6.7,6.8c0,3.8-3,6.8-6.7,6.8S277.6,176.7,277.6,172.9z M281.6,152.3c0-1.4,1.1-2.5,2.4-2.5
					s2.4,1.1,2.4,2.5s-1.1,2.5-2.4,2.5C282.7,154.7,281.6,153.6,281.6,152.3z M284.4,138.2c-3.7,0-6.7-3.1-6.7-6.8
					c0-3.8,3-6.8,6.7-6.8s6.7,3.1,6.7,6.8C291.1,135.1,288.1,138.2,284.4,138.2z M263.4,159.1c-3.7,0-6.7-3.1-6.7-6.8
					c0-3.8,3-6.8,6.7-6.8s6.7,3.1,6.7,6.8C270.2,156.1,267.1,159.1,263.4,159.1z"/>
			</g>
		</g>
		<g>
			<g>
				<g>
					<path class="st6" d="M244,150.6l2-0.2v-1.7l-2-0.2c0-0.4-0.1-0.9-0.1-1.3l2.1-0.6l-0.3-1.7l-2.2,0.1c-0.1-0.4-0.2-0.9-0.4-1.3
						l2-0.9l-0.6-1.6l-2.3,0.5c-0.2-0.5-0.4-0.9-0.7-1.3l2-1.5l-0.9-1.5l-2.3,1.1c-0.3-0.4-0.5-0.7-0.8-1.1l1.7-1.7l-1.1-1.3l-2,1.4
						c-0.3-0.3-0.6-0.5-0.9-0.8l1.2-2l-1.4-1.1l-1.6,1.7c-0.4-0.2-0.8-0.5-1.2-0.7l0.8-2.1l-1.6-0.8l-1.2,2c-0.5-0.2-1-0.4-1.6-0.5
						l0.2-2.4l-1.7-0.3l-0.7,2.3c-0.5-0.1-1-0.1-1.5-0.2l-0.2-2.3H225l-0.2,2.3c-0.5,0-1,0.1-1.5,0.2l-0.7-2.3l-1.7,0.3l0.2,2.4
						c-0.5,0.1-1,0.3-1.5,0.5l-1.3-2.1l-1.6,0.8l0.8,2.3c-0.4,0.2-0.8,0.5-1.2,0.7l-1.8-1.9l-1.4,1.1l1.3,2.1
						c-0.3,0.2-0.6,0.5-0.8,0.7l-2.2-1.6l-1.1,1.3l1.8,1.9c-0.3,0.3-0.6,0.7-0.8,1.1l-2.3-1.1l-0.9,1.5l2,1.5
						c-0.2,0.4-0.5,0.9-0.7,1.3l-2.3-0.5l-0.6,1.6l2,0.9c-0.1,0.4-0.3,0.9-0.4,1.3l-2.2-0.1l-0.3,1.7l2.1,0.5
						c-0.1,0.4-0.1,0.9-0.1,1.3l-2,0.2v1.7l2,0.2c0,0.6,0.1,1.1,0.2,1.6l-2,0.5l0.3,1.7l2.1-0.1c0.1,0.5,0.2,0.9,0.4,1.3l-1.9,0.9
						l0.6,1.6l2.2-0.5c0.2,0.5,0.4,0.9,0.7,1.3l-1.9,1.4l0.9,1.5l2.2-1.1c0.3,0.4,0.5,0.7,0.8,1.1l-1.8,1.9l1.1,1.3l2.2-1.6
						c0.3,0.3,0.6,0.5,0.8,0.7l-1.3,2.2l1.4,1.1l1.8-1.9c0.4,0.2,0.8,0.5,1.2,0.7l-0.9,2.3l1.6,0.8l1.3-2.2c0.5,0.2,1,0.3,1.5,0.5
						l-0.2,2.5l1.7,0.3l0.7-2.4c0.4,0.1,0.8,0.1,1.1,0.1l0.2,2.5h1.7l0.2-2.4c0.5,0,1-0.1,1.4-0.1l0.7,2.4l1.7-0.3l-0.2-2.5
						c0.5-0.1,1-0.3,1.5-0.5l1.3,2.1l1.6-0.8l-0.8-2.2c0.4-0.2,0.8-0.4,1.2-0.7l1.5,1.6l1.4-1.1l-1.1-1.8c0.3-0.2,0.6-0.5,0.9-0.8
						l2,1.4l1.1-1.3l-1.6-1.6c0.3-0.4,0.6-0.8,0.9-1.1l2.3,1.1l0.9-1.5l-1.9-1.4c0.2-0.4,0.5-0.9,0.7-1.3l2.2,0.5l0.6-1.6l-1.9-0.9
						c0.1-0.4,0.3-0.9,0.4-1.3l2.1,0.1l0.3-1.7l-2-0.5C244,151.7,244,151.1,244,150.6z M241.6,149.6c0,9.1-7,16.4-15.6,16.4
						s-15.6-7.4-15.6-16.4s7-16.4,15.6-16.4S241.6,140.6,241.6,149.6z"/>
					<ellipse class="st6" cx="226" cy="149.6" rx="14.5" ry="15.4"/>
				</g>
			</g>
		</g>
	</g>
	<g>
		<ellipse class="st30" cx="1416.3" cy="156.2" rx="86.8" ry="84.2"/>
		<g>
			<g>
				<g>
					<g>
						<line class="st1" x1="1354.8" y1="115.7" x2="1354.8" y2="194.1"/>
						<line class="st1" x1="1488.5" y1="194.1" x2="1354.4" y2="193.6"/>
					</g>
					<polygon class="st31" points="1487.7,195.7 1487.8,192.5 1490.5,194.1 					"/>
					<polygon class="st31" points="1353.3,116.5 1354.9,113.7 1356.4,116.5 					"/>
					<rect x="1373.9" y="152.4" class="st32" width="11.9" height="35.9"/>
					<rect x="1402.5" y="135.3" class="st33" width="13.5" height="53.1"/>
					<rect x="1428" y="148.3" class="st32" width="13.5" height="40"/>
					<rect x="1450.3" y="118.1" class="st33" width="14.3" height="70.2"/>
					<line class="st1" x1="1379" y1="145.5" x2="1409.3" y2="117.7"/>
					<line class="st1" x1="1431.6" y1="126.7" x2="1408.5" y2="117.7"/>
					<line class="st1" x1="1452.3" y1="102.2" x2="1430.8" y2="126.7"/>
					<polygon class="st31" points="1449.4,102.6 1452.4,101.5 1451.9,104.6 					"/>
					<rect x="1454.2" y="118.1" class="st34" width="9.5" height="70.2"/>
					<rect x="1432.2" y="148.3" class="st35" width="7.2" height="40"/>
					<rect x="1377.5" y="152.5" class="st35" width="7.2" height="35.8"/>
					<rect x="1406.8" y="135.7" class="st34" width="7.4" height="52.7"/>
				</g>
			</g>
		</g>
	</g>
	<g>
		<ellipse class="st36" cx="1238.7" cy="547.6" rx="72.3" ry="71.2"/>
		<path class="st6" d="M1208.3,539.6c0-6.1,5.7-11.1,12.8-11.1c1.3,0,2.5,0.2,3.6,0.5c-0.3-0.8-0.5-1.7-0.5-2.6
			c0-4.7,4.3-8.5,9.5-8.5c2.7,0,5.1,1,6.8,2.6c1.6-2,4.2-3.4,7.1-3.4c1.3,0,2.4,0.2,3.5,0.7c0.7-7.3,6.9-13,14.5-13
			c8.1,0,14.6,6.4,14.6,14.4c0,0.7,0,1.3-0.1,1.9c0.7-0.2,1.3-0.2,2.1-0.2c5,0,9.1,4.1,9.4,9.2c1-0.3,2.1-0.5,3.3-0.5
			c6.1,0,11.1,4.7,11.1,10.6c0,5.1-3.8,9.4-8.9,10.4c-0.5,0.1-0.9,0.2-1.4,0.2h-75c-0.2,0-0.5,0-0.7,0
			C1213.4,550.1,1208.3,545.4,1208.3,539.6z"/>
		<g>
			<g>
				<path class="st6" d="M1266.7,548.3c0-6.1-5.7-11.1-12.8-11.1c-1.3,0-2.5,0.2-3.6,0.5c0.3-0.8,0.5-1.7,0.5-2.6
					c0-4.7-4.3-8.5-9.5-8.5c-2.7,0-5.1,1-6.8,2.6c-1.6-2-4.2-3.4-7.1-3.4c-1.3,0-2.4,0.2-3.5,0.7c-0.7-7.3-6.9-13-14.5-13
					c-8.1,0-14.6,6.4-14.6,14.4c0,0.7,0,1.3,0.1,1.9c-0.7-0.2-1.3-0.2-2.1-0.2c-5,0-9.1,4.1-9.4,9.2c-1-0.3-2.1-0.5-3.3-0.5
					c-6.1,0-11.1,4.7-11.1,10.6c0,5.1,3.8,9.4,8.9,10.4c0.5,0.1,0.9,0.2,1.4,0.2h75c0.2,0,0.5,0,0.7,0
					C1261.6,558.9,1266.7,554.1,1266.7,548.3z"/>
			</g>
		</g>
		<g>
			<polygon class="st14" points="1252.8,613.3 1266.5,602.2 1209.6,527.3 1195.8,538.4 			"/>
			<polygon class="st37" points="1203.9,537.2 1212.1,530.7 1211.5,529.9 1203.4,536.5 			"/>
			<polygon class="st37" points="1211.2,546.8 1219.3,540.2 1218.8,539.5 1210.7,546.1 			"/>
			<polygon class="st37" points="1218.5,556.4 1226.6,549.8 1226.1,549.1 1217.9,555.7 			"/>
			<polygon class="st37" points="1225.8,566 1233.9,559.4 1233.3,558.7 1225.2,565.3 			"/>
			<polygon class="st37" points="1233,575.6 1241.2,569 1240.6,568.2 1232.5,574.8 			"/>
			<polygon class="st37" points="1240,584.8 1248.2,578.2 1247.6,577.5 1239.5,584 			"/>
			<polygon class="st37" points="1247,594 1255.2,587.4 1254.6,586.7 1246.5,593.3 			"/>
			<polygon class="st37" points="1254.5,603.8 1262.6,597.2 1262.1,596.5 1254,603.1 			"/>
			<polygon class="st37" points="1208.4,536.2 1213.3,532.2 1213.1,532 1208.2,535.9 			"/>
			<polygon class="st37" points="1209.4,537.5 1214.3,533.6 1214.1,533.3 1209.2,537.2 			"/>
			<polygon class="st37" points="1210.5,538.9 1215.4,535 1215.2,534.8 1210.4,538.7 			"/>
			<polygon class="st37" points="1211.6,540.4 1216.5,536.5 1216.3,536.2 1211.5,540.2 			"/>
			<polygon class="st37" points="1212.7,541.9 1217.6,537.9 1217.4,537.7 1212.6,541.6 			"/>
			<polygon class="st37" points="1215.8,545.9 1220.6,541.9 1220.4,541.7 1215.6,545.6 			"/>
			<polygon class="st37" points="1216.8,547.2 1221.6,543.3 1221.5,543 1216.6,546.9 			"/>
			<polygon class="st37" points="1217.9,548.6 1222.7,544.7 1222.6,544.5 1217.7,548.4 			"/>
			<polygon class="st37" points="1219,550.1 1223.9,546.2 1223.7,545.9 1218.8,549.9 			"/>
			<polygon class="st37" points="1220.1,551.6 1225,547.6 1224.8,547.4 1219.9,551.3 			"/>
			<polygon class="st37" points="1223.1,555.4 1227.9,551.5 1227.7,551.3 1222.9,555.2 			"/>
			<polygon class="st37" points="1224.1,556.8 1228.9,552.8 1228.7,552.6 1223.9,556.5 			"/>
			<polygon class="st37" points="1225.2,558.2 1230,554.3 1229.8,554.1 1225,558 			"/>
			<polygon class="st37" points="1226.3,559.7 1231.1,555.8 1230.9,555.5 1226.1,559.4 			"/>
			<polygon class="st37" points="1227.4,561.1 1232.2,557.2 1232.1,557 1227.2,560.9 			"/>
			<polygon class="st37" points="1230.2,564.8 1235,560.8 1234.8,560.6 1230,564.5 			"/>
			<polygon class="st37" points="1231.2,566.1 1236,562.2 1235.8,561.9 1231,565.9 			"/>
			<polygon class="st37" points="1232.3,567.6 1237.1,563.6 1236.9,563.4 1232.1,567.3 			"/>
			<polygon class="st37" points="1233.4,569 1238.2,565.1 1238,564.8 1233.2,568.8 			"/>
			<polygon class="st37" points="1234.5,570.5 1239.3,566.5 1239.1,566.3 1234.3,570.2 			"/>
			<polygon class="st37" points="1237.4,574.3 1242.3,570.4 1242.1,570.2 1237.3,574.1 			"/>
			<polygon class="st37" points="1238.5,575.7 1243.3,571.8 1243.1,571.5 1238.3,575.4 			"/>
			<polygon class="st37" points="1239.6,577.1 1244.4,573.2 1244.2,573 1239.4,576.9 			"/>
			<polygon class="st37" points="1240.7,578.6 1245.5,574.7 1245.3,574.4 1240.5,578.3 			"/>
			<polygon class="st37" points="1241.8,580 1246.6,576.1 1246.4,575.9 1241.6,579.8 			"/>
			<polygon class="st37" points="1244.5,583.7 1249.4,579.8 1249.2,579.5 1244.3,583.4 			"/>
			<polygon class="st37" points="1245.5,585 1250.4,581.1 1250.2,580.8 1245.4,584.8 			"/>
			<polygon class="st37" points="1246.7,586.5 1251.5,582.5 1251.3,582.3 1246.5,586.2 			"/>
			<polygon class="st37" points="1247.8,587.9 1252.6,584 1252.4,583.8 1247.6,587.7 			"/>
			<polygon class="st37" points="1248.9,589.4 1253.7,585.5 1253.5,585.2 1248.7,589.1 			"/>
			<polygon class="st37" points="1251.4,592.8 1256.3,588.8 1256.1,588.6 1251.3,592.5 			"/>
			<polygon class="st37" points="1252.5,594.1 1257.3,590.2 1257.1,589.9 1252.3,593.9 			"/>
			<polygon class="st37" points="1253.6,595.6 1258.4,591.6 1258.2,591.4 1253.4,595.3 			"/>
			<polygon class="st37" points="1254.7,597 1259.5,593.1 1259.3,592.8 1254.5,596.8 			"/>
			<polygon class="st37" points="1255.8,598.5 1260.6,594.5 1260.4,594.3 1255.6,598.2 			"/>
		</g>
		<g>
			<polygon class="st38" points="1218.2,599.1 1214.4,595.5 1264.3,538.7 1268.1,542.3 1268.1,542.3 			"/>
			<polygon class="st39" points="1222.1,602.7 1218.2,599.1 1268.1,542.3 1272,545.9 			"/>
			<polygon class="st38" points="1225.9,606.3 1222.1,602.7 1272,545.9 1275.8,549.5 			"/>
			<polygon class="st6" points="1223.7,608.8 1212.2,598 1214.4,595.5 1225.9,606.3 			"/>
			<g id="XMLID_4_">
				<g>
					<path class="st37" d="M1223.7,608.8l-2.5,2.8c-1,1.2-2.8,1.3-4,0.2l-7.5-7c-1.1-1-1.2-2.7-0.2-3.9l2.6-2.9L1223.7,608.8z"/>
				</g>
			</g>
			<g id="XMLID_3_">
				<g>
					<polygon class="st40" points="1276.9,540.4 1275.8,549.5 1264.3,538.7 1273,536.7 1273,536.8 1276.8,540.4 					"/>
					<polygon class="st37" points="1277.5,535.7 1276.9,540.4 1276.8,540.4 1273,536.8 1273,536.7 					"/>
				</g>
			</g>
		</g>
	</g>
</g>
</svg>
